<?xml version="1.0" encoding="UTF-8"?>
<svg xmlns="http://www.w3.org/2000/svg" version="1.1" width="200" height="200" viewBox="0 0 200 200"><rect x="0" y="0" width="200" height="200" fill="#ffffff"/><g transform="scale(4.878)"><g transform="translate(0,0)"><path fill-rule="evenodd" d="M8 0L8 1L9 1L9 0ZM12 0L12 1L10 1L10 2L8 2L8 5L9 5L9 6L8 6L8 7L9 7L9 8L8 8L8 9L9 9L9 10L8 10L8 11L9 11L9 12L6 12L6 13L9 13L9 12L10 12L10 14L6 14L6 15L7 15L7 16L6 16L6 17L4 17L4 16L3 16L3 15L4 15L4 14L5 14L5 13L4 13L4 14L3 14L3 12L4 12L4 10L5 10L5 9L4 9L4 8L0 8L0 9L2 9L2 10L0 10L0 11L2 11L2 10L3 10L3 12L0 12L0 13L2 13L2 14L0 14L0 17L1 17L1 19L0 19L0 21L1 21L1 22L0 22L0 23L4 23L4 22L2 22L2 21L1 21L1 19L3 19L3 21L4 21L4 19L7 19L7 20L5 20L5 21L7 21L7 22L6 22L6 23L7 23L7 22L8 22L8 23L9 23L9 24L8 24L8 25L7 25L7 24L6 24L6 25L4 25L4 27L2 27L2 26L1 26L1 27L2 27L2 29L3 29L3 28L4 28L4 27L5 27L5 28L6 28L6 29L8 29L8 31L7 31L7 30L5 30L5 29L4 29L4 30L5 30L5 31L7 31L7 32L6 32L6 33L7 33L7 32L8 32L8 34L9 34L9 33L10 33L10 31L11 31L11 33L12 33L12 32L13 32L13 31L11 31L11 30L10 30L10 31L9 31L9 29L12 29L12 28L10 28L10 27L9 27L9 26L11 26L11 25L12 25L12 26L13 26L13 27L14 27L14 26L17 26L17 27L15 27L15 28L13 28L13 29L14 29L14 30L15 30L15 32L14 32L14 33L16 33L16 34L17 34L17 35L18 35L18 34L20 34L20 37L19 37L19 36L15 36L15 37L14 37L14 35L15 35L15 34L14 34L14 35L13 35L13 37L12 37L12 38L13 38L13 39L11 39L11 41L12 41L12 40L13 40L13 41L15 41L15 40L17 40L17 41L19 41L19 39L21 39L21 41L23 41L23 39L22 39L22 38L23 38L23 37L21 37L21 33L22 33L22 32L21 32L21 31L19 31L19 33L18 33L18 30L19 30L19 29L17 29L17 27L18 27L18 28L19 28L19 27L20 27L20 29L22 29L22 30L24 30L24 31L23 31L23 32L24 32L24 33L23 33L23 34L22 34L22 35L23 35L23 36L24 36L24 34L25 34L25 32L24 32L24 31L25 31L25 30L24 30L24 29L22 29L22 28L25 28L25 29L26 29L26 28L25 28L25 27L27 27L27 26L29 26L29 27L30 27L30 28L31 28L31 29L30 29L30 31L28 31L28 30L29 30L29 29L27 29L27 31L28 31L28 32L26 32L26 33L28 33L28 36L29 36L29 37L31 37L31 36L32 36L32 37L36 37L36 38L35 38L35 40L36 40L36 41L37 41L37 40L36 40L36 38L37 38L37 32L36 32L36 31L35 31L35 32L33 32L33 31L31 31L31 29L32 29L32 26L33 26L33 29L34 29L34 26L35 26L35 25L34 25L34 26L33 26L33 24L38 24L38 26L36 26L36 27L35 27L35 29L37 29L37 30L38 30L38 26L39 26L39 27L41 27L41 24L40 24L40 23L39 23L39 24L38 24L38 23L36 23L36 22L37 22L37 20L38 20L38 21L39 21L39 22L41 22L41 21L39 21L39 20L41 20L41 19L37 19L37 18L38 18L38 15L37 15L37 14L39 14L39 16L41 16L41 13L40 13L40 14L39 14L39 12L37 12L37 11L40 11L40 12L41 12L41 11L40 11L40 10L41 10L41 8L40 8L40 10L37 10L37 9L39 9L39 8L36 8L36 9L35 9L35 13L34 13L34 14L33 14L33 15L34 15L34 16L33 16L33 17L34 17L34 16L35 16L35 18L34 18L34 19L33 19L33 18L32 18L32 20L31 20L31 16L32 16L32 13L33 13L33 12L32 12L32 11L33 11L33 10L32 10L32 7L33 7L33 5L32 5L32 3L33 3L33 1L32 1L32 0L30 0L30 1L29 1L29 0L28 0L28 3L29 3L29 4L27 4L27 2L25 2L25 5L26 5L26 7L27 7L27 5L29 5L29 6L28 6L28 7L29 7L29 8L26 8L26 9L28 9L28 10L29 10L29 11L31 11L31 12L32 12L32 13L31 13L31 16L30 16L30 17L29 17L29 14L30 14L30 12L29 12L29 13L28 13L28 12L27 12L27 11L24 11L24 10L25 10L25 9L22 9L22 8L23 8L23 4L22 4L22 8L20 8L20 7L21 7L21 6L20 6L20 5L19 5L19 4L21 4L21 3L17 3L17 2L19 2L19 1L20 1L20 2L22 2L22 3L24 3L24 0L23 0L23 2L22 2L22 0L21 0L21 1L20 1L20 0L18 0L18 1L17 1L17 0L14 0L14 2L13 2L13 3L11 3L11 2L12 2L12 1L13 1L13 0ZM25 0L25 1L26 1L26 0ZM15 1L15 2L14 2L14 4L13 4L13 8L11 8L11 9L10 9L10 10L11 10L11 9L13 9L13 10L12 10L12 11L10 11L10 12L11 12L11 13L12 13L12 14L11 14L11 15L10 15L10 17L9 17L9 15L8 15L8 17L6 17L6 18L8 18L8 21L10 21L10 22L9 22L9 23L10 23L10 22L11 22L11 23L13 23L13 21L15 21L15 24L16 24L16 22L17 22L17 24L19 24L19 23L21 23L21 25L20 25L20 26L21 26L21 27L25 27L25 26L26 26L26 25L25 25L25 22L24 22L24 24L23 24L23 26L22 26L22 23L23 23L23 22L21 22L21 21L20 21L20 22L19 22L19 19L21 19L21 20L23 20L23 21L24 21L24 20L25 20L25 21L26 21L26 20L27 20L27 22L26 22L26 23L29 23L29 24L28 24L28 25L29 25L29 24L30 24L30 25L31 25L31 24L33 24L33 23L34 23L34 22L33 22L33 20L32 20L32 22L31 22L31 21L29 21L29 19L30 19L30 18L29 18L29 17L28 17L28 16L27 16L27 15L28 15L28 14L27 14L27 13L26 13L26 14L25 14L25 13L23 13L23 12L24 12L24 11L23 11L23 10L21 10L21 9L20 9L20 10L18 10L18 8L19 8L19 7L20 7L20 6L19 6L19 5L18 5L18 6L17 6L17 4L16 4L16 5L15 5L15 3L16 3L16 2L17 2L17 1ZM30 1L30 2L29 2L29 3L30 3L30 6L29 6L29 7L30 7L30 8L31 8L31 7L32 7L32 6L31 6L31 3L30 3L30 2L32 2L32 1ZM11 4L11 5L10 5L10 6L9 6L9 7L10 7L10 6L11 6L11 7L12 7L12 6L11 6L11 5L12 5L12 4ZM14 5L14 7L15 7L15 8L14 8L14 9L17 9L17 8L18 8L18 7L19 7L19 6L18 6L18 7L17 7L17 6L16 6L16 7L15 7L15 5ZM24 6L24 7L25 7L25 6ZM30 6L30 7L31 7L31 6ZM16 7L16 8L17 8L17 7ZM6 8L6 9L7 9L7 8ZM33 8L33 9L34 9L34 8ZM29 9L29 10L30 10L30 9ZM6 10L6 11L7 11L7 10ZM13 10L13 11L12 11L12 12L13 12L13 13L14 13L14 12L15 12L15 11L14 11L14 10ZM16 10L16 12L17 12L17 14L16 14L16 13L15 13L15 14L16 14L16 15L17 15L17 14L18 14L18 18L16 18L16 17L15 17L15 19L14 19L14 18L13 18L13 17L14 17L14 16L15 16L15 15L14 15L14 14L12 14L12 16L11 16L11 18L13 18L13 19L14 19L14 20L17 20L17 21L18 21L18 18L19 18L19 15L21 15L21 16L20 16L20 17L23 17L23 18L24 18L24 19L26 19L26 18L27 18L27 19L29 19L29 18L28 18L28 17L25 17L25 18L24 18L24 17L23 17L23 16L25 16L25 15L23 15L23 13L22 13L22 15L21 15L21 12L20 12L20 13L19 13L19 11L18 11L18 10ZM20 10L20 11L21 11L21 10ZM31 10L31 11L32 11L32 10ZM36 10L36 11L37 11L37 10ZM17 11L17 12L18 12L18 11ZM22 11L22 12L23 12L23 11ZM36 12L36 13L35 13L35 14L34 14L34 15L35 15L35 16L36 16L36 14L37 14L37 12ZM2 14L2 15L1 15L1 17L2 17L2 15L3 15L3 14ZM26 14L26 15L27 15L27 14ZM13 15L13 16L14 16L14 15ZM22 15L22 16L23 16L23 15ZM3 17L3 19L4 19L4 17ZM8 17L8 18L9 18L9 17ZM36 17L36 18L37 18L37 17ZM39 17L39 18L40 18L40 17ZM9 19L9 20L10 20L10 19ZM11 19L11 21L12 21L12 19ZM36 19L36 20L35 20L35 22L36 22L36 20L37 20L37 19ZM28 21L28 22L29 22L29 23L30 23L30 22L29 22L29 21ZM32 22L32 23L33 23L33 22ZM9 24L9 25L10 25L10 24ZM6 25L6 26L7 26L7 27L6 27L6 28L8 28L8 29L9 29L9 28L8 28L8 26L7 26L7 25ZM13 25L13 26L14 26L14 25ZM17 25L17 26L18 26L18 27L19 27L19 25ZM39 25L39 26L40 26L40 25ZM30 26L30 27L31 27L31 26ZM15 28L15 29L16 29L16 28ZM39 28L39 30L40 30L40 28ZM0 30L0 31L1 31L1 30ZM2 30L2 32L1 32L1 33L5 33L5 32L3 32L3 30ZM16 30L16 32L17 32L17 30ZM30 31L30 32L31 32L31 31ZM38 31L38 33L39 33L39 35L40 35L40 34L41 34L41 32L39 32L39 31ZM20 32L20 33L21 33L21 32ZM17 33L17 34L18 34L18 33ZM29 33L29 34L30 34L30 35L29 35L29 36L30 36L30 35L31 35L31 34L30 34L30 33ZM33 33L33 36L36 36L36 33ZM10 34L10 35L9 35L9 36L10 36L10 37L8 37L8 41L10 41L10 40L9 40L9 39L10 39L10 37L11 37L11 35L12 35L12 34ZM26 34L26 35L25 35L25 37L24 37L24 39L27 39L27 38L28 38L28 39L29 39L29 38L28 38L28 37L27 37L27 34ZM34 34L34 35L35 35L35 34ZM38 36L38 38L39 38L39 37L40 37L40 36ZM16 37L16 38L15 38L15 39L13 39L13 40L15 40L15 39L17 39L17 40L18 40L18 39L19 39L19 38L17 38L17 37ZM25 37L25 38L26 38L26 37ZM30 38L30 41L31 41L31 39L32 39L32 41L34 41L34 40L33 40L33 39L32 39L32 38ZM39 39L39 41L40 41L40 39ZM25 40L25 41L27 41L27 40ZM0 0L0 7L7 7L7 0ZM1 1L1 6L6 6L6 1ZM2 2L2 5L5 5L5 2ZM34 0L34 7L41 7L41 0ZM35 1L35 6L40 6L40 1ZM36 2L36 5L39 5L39 2ZM0 34L0 41L7 41L7 34ZM1 35L1 40L6 40L6 35ZM2 36L2 39L5 39L5 36Z" fill="#000000"/></g></g></svg>
