<?xml version="1.0" encoding="UTF-8"?>
<svg xmlns="http://www.w3.org/2000/svg" version="1.1" width="200" height="200" viewBox="0 0 200 200"><rect x="0" y="0" width="200" height="200" fill="#ffffff"/><g transform="scale(5.128)"><g transform="translate(1,1)"><path fill-rule="evenodd" d="M10 0L10 1L8 1L8 2L9 2L9 5L8 5L8 8L4 8L4 9L2 9L2 10L0 10L0 11L1 11L1 12L0 12L0 13L1 13L1 14L0 14L0 15L1 15L1 16L2 16L2 17L3 17L3 16L5 16L5 15L7 15L7 16L6 16L6 17L4 17L4 18L3 18L3 21L0 21L0 22L1 22L1 23L2 23L2 22L3 22L3 21L5 21L5 22L4 22L4 24L2 24L2 25L1 25L1 24L0 24L0 26L3 26L3 27L2 27L2 28L0 28L0 29L2 29L2 28L3 28L3 29L4 29L4 28L3 28L3 27L5 27L5 26L6 26L6 27L8 27L8 28L11 28L11 29L10 29L10 30L11 30L11 31L9 31L9 29L8 29L8 33L9 33L9 34L10 34L10 36L9 36L9 37L10 37L10 36L11 36L11 37L13 37L13 35L15 35L15 36L14 36L14 37L16 37L16 36L18 36L18 37L23 37L23 36L24 36L24 35L25 35L25 33L24 33L24 34L23 34L23 32L24 32L24 28L25 28L25 27L26 27L26 26L27 26L27 28L26 28L26 29L25 29L25 30L26 30L26 29L27 29L27 28L28 28L28 34L27 34L27 35L26 35L26 36L27 36L27 35L29 35L29 37L31 37L31 36L30 36L30 35L32 35L32 36L33 36L33 37L37 37L37 36L36 36L36 34L35 34L35 33L37 33L37 31L36 31L36 30L34 30L34 29L33 29L33 28L36 28L36 29L37 29L37 28L36 28L36 26L35 26L35 27L34 27L34 25L35 25L35 23L36 23L36 25L37 25L37 23L36 23L36 22L35 22L35 18L33 18L33 17L36 17L36 16L37 16L37 15L36 15L36 12L37 12L37 11L36 11L36 12L35 12L35 11L33 11L33 13L32 13L32 12L30 12L30 10L31 10L31 11L32 11L32 10L35 10L35 9L36 9L36 8L35 8L35 9L32 9L32 8L30 8L30 9L28 9L28 8L27 8L27 5L28 5L28 7L29 7L29 5L28 5L28 4L27 4L27 3L29 3L29 2L27 2L27 1L28 1L28 0L27 0L27 1L26 1L26 0L25 0L25 1L24 1L24 0L23 0L23 1L22 1L22 0L21 0L21 1L20 1L20 0L19 0L19 1L15 1L15 0L14 0L14 1L15 1L15 2L11 2L11 1L12 1L12 0ZM23 1L23 2L21 2L21 3L20 3L20 2L19 2L19 3L20 3L20 4L18 4L18 6L17 6L17 4L16 4L16 3L17 3L17 2L16 2L16 3L15 3L15 4L12 4L12 3L11 3L11 2L10 2L10 5L9 5L9 7L10 7L10 11L9 11L9 10L7 10L7 9L4 9L4 10L2 10L2 11L3 11L3 12L1 12L1 13L4 13L4 14L5 14L5 13L4 13L4 10L7 10L7 11L5 11L5 12L7 12L7 11L9 11L9 13L6 13L6 14L9 14L9 13L10 13L10 12L12 12L12 13L11 13L11 15L12 15L12 17L11 17L11 18L12 18L12 19L15 19L15 20L13 20L13 21L12 21L12 24L11 24L11 22L10 22L10 23L8 23L8 25L6 25L6 24L7 24L7 23L6 23L6 24L5 24L5 25L6 25L6 26L9 26L9 24L10 24L10 27L11 27L11 28L12 28L12 29L13 29L13 30L15 30L15 31L12 31L12 32L14 32L14 33L10 33L10 34L12 34L12 35L11 35L11 36L12 36L12 35L13 35L13 34L15 34L15 35L16 35L16 34L15 34L15 31L16 31L16 33L17 33L17 35L19 35L19 36L20 36L20 35L19 35L19 34L18 34L18 32L20 32L20 34L21 34L21 36L23 36L23 34L21 34L21 33L22 33L22 32L23 32L23 31L21 31L21 32L20 32L20 30L21 30L21 29L20 29L20 28L19 28L19 26L20 26L20 27L22 27L22 28L24 28L24 27L25 27L25 25L23 25L23 24L22 24L22 25L21 25L21 23L22 23L22 22L23 22L23 23L24 23L24 24L25 24L25 23L24 23L24 22L26 22L26 21L27 21L27 20L28 20L28 23L26 23L26 25L27 25L27 26L28 26L28 27L29 27L29 26L30 26L30 25L31 25L31 27L32 27L32 26L33 26L33 25L34 25L34 20L33 20L33 18L31 18L31 17L30 17L30 16L29 16L29 15L30 15L30 14L31 14L31 15L32 15L32 17L33 17L33 16L34 16L34 15L33 15L33 14L34 14L34 13L33 13L33 14L32 14L32 13L30 13L30 12L29 12L29 11L28 11L28 9L26 9L26 10L21 10L21 8L22 8L22 9L23 9L23 8L26 8L26 6L25 6L25 5L24 5L24 6L23 6L23 5L21 5L21 7L20 7L20 6L19 6L19 5L20 5L20 4L21 4L21 3L22 3L22 4L24 4L24 1ZM25 1L25 3L26 3L26 1ZM11 4L11 5L10 5L10 7L11 7L11 5L12 5L12 8L11 8L11 9L14 9L14 10L13 10L13 11L12 11L12 10L11 10L11 11L12 11L12 12L16 12L16 13L13 13L13 14L12 14L12 15L13 15L13 14L16 14L16 13L17 13L17 15L16 15L16 16L15 16L15 15L14 15L14 17L12 17L12 18L15 18L15 19L16 19L16 18L15 18L15 17L17 17L17 20L18 20L18 18L19 18L19 17L20 17L20 16L18 16L18 15L21 15L21 17L22 17L22 18L20 18L20 19L21 19L21 20L20 20L20 21L19 21L19 24L20 24L20 22L21 22L21 21L23 21L23 22L24 22L24 21L23 21L23 20L25 20L25 18L24 18L24 17L22 17L22 16L24 16L24 15L25 15L25 14L26 14L26 13L27 13L27 15L29 15L29 14L30 14L30 13L29 13L29 12L27 12L27 11L26 11L26 13L25 13L25 14L24 14L24 15L23 15L23 13L22 13L22 14L19 14L19 13L18 13L18 11L21 11L21 10L20 10L20 7L19 7L19 6L18 6L18 8L19 8L19 9L17 9L17 8L16 8L16 7L17 7L17 6L16 6L16 7L15 7L15 5L16 5L16 4L15 4L15 5L14 5L14 7L13 7L13 5L12 5L12 4ZM22 6L22 8L23 8L23 6ZM24 6L24 7L25 7L25 6ZM14 7L14 8L15 8L15 9L16 9L16 10L14 10L14 11L16 11L16 12L17 12L17 9L16 9L16 8L15 8L15 7ZM8 8L8 9L9 9L9 8ZM22 11L22 12L25 12L25 11ZM1 14L1 15L2 15L2 16L3 16L3 15L2 15L2 14ZM9 15L9 19L8 19L8 20L9 20L9 21L8 21L8 22L9 22L9 21L10 21L10 20L9 20L9 19L10 19L10 15ZM26 16L26 17L27 17L27 19L28 19L28 20L29 20L29 22L30 22L30 23L29 23L29 24L27 24L27 25L30 25L30 24L31 24L31 25L33 25L33 24L32 24L32 23L31 23L31 22L30 22L30 21L31 21L31 20L29 20L29 18L30 18L30 17L29 17L29 16ZM6 17L6 18L8 18L8 17ZM28 17L28 18L29 18L29 17ZM0 18L0 20L2 20L2 19L1 19L1 18ZM22 18L22 20L23 20L23 18ZM5 19L5 21L6 21L6 22L7 22L7 21L6 21L6 20L7 20L7 19ZM36 19L36 21L37 21L37 19ZM15 20L15 24L14 24L14 25L17 25L17 26L18 26L18 25L17 25L17 23L18 23L18 21L17 21L17 22L16 22L16 20ZM32 21L32 22L33 22L33 21ZM13 22L13 23L14 23L14 22ZM3 25L3 26L4 26L4 25ZM11 25L11 26L12 26L12 27L13 27L13 26L12 26L12 25ZM20 25L20 26L21 26L21 25ZM15 26L15 27L14 27L14 29L16 29L16 28L17 28L17 27L16 27L16 26ZM22 26L22 27L23 27L23 26ZM15 27L15 28L16 28L16 27ZM5 28L5 29L7 29L7 28ZM18 28L18 29L17 29L17 30L18 30L18 31L17 31L17 32L18 32L18 31L19 31L19 30L18 30L18 29L19 29L19 28ZM22 29L22 30L23 30L23 29ZM29 29L29 32L32 32L32 29ZM30 30L30 31L31 31L31 30ZM33 31L33 32L34 32L34 31ZM35 31L35 32L36 32L36 31ZM26 32L26 33L27 33L27 32ZM29 33L29 34L30 34L30 33ZM31 33L31 34L32 34L32 35L33 35L33 33ZM34 34L34 35L35 35L35 34ZM0 0L0 7L7 7L7 0ZM1 1L1 6L6 6L6 1ZM2 2L2 5L5 5L5 2ZM30 0L30 7L37 7L37 0ZM31 1L31 6L36 6L36 1ZM32 2L32 5L35 5L35 2ZM0 30L0 37L7 37L7 30ZM1 31L1 36L6 36L6 31ZM2 32L2 35L5 35L5 32Z" fill="#000000"/></g></g></svg>
