<?xml version="1.0" encoding="UTF-8"?>
<svg xmlns="http://www.w3.org/2000/svg" version="1.1" width="200" height="200" viewBox="0 0 200 200"><rect x="0" y="0" width="200" height="200" fill="#ffffff"/><g transform="scale(4.878)"><g transform="translate(0,0)"><path fill-rule="evenodd" d="M9 0L9 1L8 1L8 3L9 3L9 4L8 4L8 8L6 8L6 9L8 9L8 8L9 8L9 9L10 9L10 8L9 8L9 6L10 6L10 7L11 7L11 6L12 6L12 7L13 7L13 5L14 5L14 8L12 8L12 10L13 10L13 9L15 9L15 8L16 8L16 9L17 9L17 10L19 10L19 11L20 11L20 12L19 12L19 13L16 13L16 15L17 15L17 17L16 17L16 16L15 16L15 12L17 12L17 11L15 11L15 10L14 10L14 11L13 11L13 12L12 12L12 11L11 11L11 15L10 15L10 16L11 16L11 17L9 17L9 16L8 16L8 17L7 17L7 16L6 16L6 17L7 17L7 18L5 18L5 17L4 17L4 16L5 16L5 13L7 13L7 14L6 14L6 15L8 15L8 11L9 11L9 10L8 10L8 11L7 11L7 10L6 10L6 11L7 11L7 12L5 12L5 11L4 11L4 8L3 8L3 10L2 10L2 8L0 8L0 10L1 10L1 11L0 11L0 13L1 13L1 14L2 14L2 15L1 15L1 16L0 16L0 17L2 17L2 18L3 18L3 19L2 19L2 20L3 20L3 21L2 21L2 22L1 22L1 21L0 21L0 22L1 22L1 24L0 24L0 25L1 25L1 26L4 26L4 25L7 25L7 24L8 24L8 25L9 25L9 23L10 23L10 25L11 25L11 24L12 24L12 23L13 23L13 25L12 25L12 26L10 26L10 28L12 28L12 29L11 29L11 30L10 30L10 31L7 31L7 30L5 30L5 29L4 29L4 28L5 28L5 27L7 27L7 28L6 28L6 29L8 29L8 30L9 30L9 28L8 28L8 27L9 27L9 26L5 26L5 27L4 27L4 28L0 28L0 29L1 29L1 30L0 30L0 31L1 31L1 30L2 30L2 31L3 31L3 32L4 32L4 33L8 33L8 35L10 35L10 34L11 34L11 33L12 33L12 36L13 36L13 37L14 37L14 39L13 39L13 38L11 38L11 36L9 36L9 37L8 37L8 38L9 38L9 39L8 39L8 41L10 41L10 40L12 40L12 39L13 39L13 40L15 40L15 41L16 41L16 40L15 40L15 37L16 37L16 39L17 39L17 41L18 41L18 40L19 40L19 41L23 41L23 40L26 40L26 41L27 41L27 40L29 40L29 41L30 41L30 40L32 40L32 41L36 41L36 40L37 40L37 41L38 41L38 40L37 40L37 39L39 39L39 41L40 41L40 39L39 39L39 38L41 38L41 37L39 37L39 38L37 38L37 35L38 35L38 36L39 36L39 35L40 35L40 34L41 34L41 32L40 32L40 31L41 31L41 29L40 29L40 30L39 30L39 29L38 29L38 30L36 30L36 29L34 29L34 28L35 28L35 27L36 27L36 26L34 26L34 25L35 25L35 24L37 24L37 25L38 25L38 24L39 24L39 23L38 23L38 21L39 21L39 22L41 22L41 18L40 18L40 17L37 17L37 18L36 18L36 17L34 17L34 16L36 16L36 13L35 13L35 12L37 12L37 15L38 15L38 12L41 12L41 11L40 11L40 10L41 10L41 9L40 9L40 8L38 8L38 9L37 9L37 8L34 8L34 9L37 9L37 10L36 10L36 11L35 11L35 10L31 10L31 9L32 9L32 7L33 7L33 4L32 4L32 2L29 2L29 3L28 3L28 0L26 0L26 2L27 2L27 3L26 3L26 5L27 5L27 6L26 6L26 7L27 7L27 6L28 6L28 11L27 11L27 8L26 8L26 10L25 10L25 8L23 8L23 6L22 6L22 5L21 5L21 3L20 3L20 2L19 2L19 4L20 4L20 5L18 5L18 7L17 7L17 5L16 5L16 4L17 4L17 3L18 3L18 1L19 1L19 0L18 0L18 1L15 1L15 2L14 2L14 3L15 3L15 4L13 4L13 3L12 3L12 5L11 5L11 4L10 4L10 3L9 3L9 1L10 1L10 2L11 2L11 1L10 1L10 0ZM21 0L21 1L22 1L22 3L23 3L23 5L25 5L25 1L24 1L24 0L23 0L23 1L22 1L22 0ZM30 0L30 1L32 1L32 0ZM12 1L12 2L13 2L13 1ZM15 2L15 3L16 3L16 2ZM27 3L27 4L28 4L28 3ZM29 3L29 5L28 5L28 6L29 6L29 7L30 7L30 6L31 6L31 7L32 7L32 6L31 6L31 5L32 5L32 4L30 4L30 3ZM20 5L20 6L19 6L19 7L18 7L18 8L17 8L17 7L16 7L16 6L15 6L15 7L16 7L16 8L17 8L17 9L19 9L19 10L21 10L21 8L20 8L20 6L21 6L21 7L22 7L22 6L21 6L21 5ZM24 6L24 7L25 7L25 6ZM19 8L19 9L20 9L20 8ZM22 8L22 9L23 9L23 10L22 10L22 12L23 12L23 13L22 13L22 14L21 14L21 13L20 13L20 14L19 14L19 15L18 15L18 14L17 14L17 15L18 15L18 16L20 16L20 17L17 17L17 18L16 18L16 17L15 17L15 16L13 16L13 17L15 17L15 19L14 19L14 18L13 18L13 19L12 19L12 18L9 18L9 17L8 17L8 18L9 18L9 19L11 19L11 20L12 20L12 21L11 21L11 22L10 22L10 20L8 20L8 21L5 21L5 20L4 20L4 23L3 23L3 24L2 24L2 25L4 25L4 24L5 24L5 23L6 23L6 24L7 24L7 23L9 23L9 22L10 22L10 23L12 23L12 21L13 21L13 23L14 23L14 25L13 25L13 26L12 26L12 28L13 28L13 29L12 29L12 30L11 30L11 31L12 31L12 32L15 32L15 33L13 33L13 35L14 35L14 34L15 34L15 35L16 35L16 37L17 37L17 36L19 36L19 37L20 37L20 38L19 38L19 39L20 39L20 38L21 38L21 37L20 37L20 36L21 36L21 34L20 34L20 33L19 33L19 32L20 32L20 31L21 31L21 30L22 30L22 33L23 33L23 34L22 34L22 36L23 36L23 35L24 35L24 36L25 36L25 35L26 35L26 37L25 37L25 38L26 38L26 40L27 40L27 39L29 39L29 38L30 38L30 37L31 37L31 39L33 39L33 40L34 40L34 39L35 39L35 40L36 40L36 37L35 37L35 38L32 38L32 36L31 36L31 35L32 35L32 33L31 33L31 32L32 32L32 30L33 30L33 29L32 29L32 28L33 28L33 27L34 27L34 26L33 26L33 24L35 24L35 23L37 23L37 24L38 24L38 23L37 23L37 19L38 19L38 20L39 20L39 21L40 21L40 20L39 20L39 19L38 19L38 18L37 18L37 19L36 19L36 22L35 22L35 23L34 23L34 21L33 21L33 19L34 19L34 20L35 20L35 19L34 19L34 18L33 18L33 19L32 19L32 17L31 17L31 16L34 16L34 15L35 15L35 13L34 13L34 12L35 12L35 11L34 11L34 12L33 12L33 11L32 11L32 14L31 14L31 12L30 12L30 11L28 11L28 12L30 12L30 14L31 14L31 15L30 15L30 17L29 17L29 16L28 16L28 17L27 17L27 16L25 16L25 15L24 15L24 16L23 16L23 15L22 15L22 14L25 14L25 13L24 13L24 12L25 12L25 11L24 11L24 9L23 9L23 8ZM29 8L29 9L31 9L31 8ZM38 9L38 10L37 10L37 12L38 12L38 10L40 10L40 9ZM3 11L3 12L4 12L4 11ZM14 11L14 12L15 12L15 11ZM23 11L23 12L24 12L24 11ZM26 11L26 14L27 14L27 15L28 15L28 13L27 13L27 11ZM1 12L1 13L2 13L2 12ZM9 12L9 14L10 14L10 12ZM3 13L3 15L2 15L2 16L4 16L4 13ZM12 13L12 15L14 15L14 13ZM33 13L33 15L34 15L34 13ZM39 13L39 16L41 16L41 14L40 14L40 13ZM21 15L21 17L20 17L20 19L19 19L19 20L18 20L18 19L15 19L15 20L18 20L18 22L16 22L16 23L15 23L15 21L14 21L14 20L13 20L13 21L14 21L14 23L15 23L15 24L16 24L16 25L17 25L17 26L18 26L18 27L15 27L15 25L14 25L14 26L13 26L13 28L14 28L14 29L13 29L13 30L12 30L12 31L15 31L15 32L16 32L16 34L18 34L18 35L19 35L19 36L20 36L20 34L18 34L18 31L19 31L19 29L20 29L20 30L21 30L21 29L22 29L22 30L26 30L26 29L25 29L25 28L28 28L28 27L27 27L27 26L26 26L26 27L25 27L25 28L24 28L24 26L23 26L23 25L26 25L26 23L27 23L27 22L25 22L25 21L27 21L27 20L28 20L28 21L29 21L29 22L30 22L30 23L31 23L31 24L32 24L32 22L30 22L30 21L29 21L29 20L32 20L32 19L29 19L29 17L28 17L28 19L26 19L26 20L25 20L25 18L24 18L24 17L25 17L25 16L24 16L24 17L23 17L23 16L22 16L22 15ZM3 17L3 18L4 18L4 17ZM26 17L26 18L27 18L27 17ZM30 17L30 18L31 18L31 17ZM0 18L0 19L1 19L1 18ZM23 18L23 19L24 19L24 18ZM6 19L6 20L7 20L7 19ZM20 19L20 20L19 20L19 22L18 22L18 23L16 23L16 24L19 24L19 25L18 25L18 26L19 26L19 27L18 27L18 28L20 28L20 29L21 29L21 27L22 27L22 29L24 29L24 28L23 28L23 27L22 27L22 26L21 26L21 25L20 25L20 24L19 24L19 22L20 22L20 23L21 23L21 21L20 21L20 20L21 20L21 19ZM28 19L28 20L29 20L29 19ZM23 20L23 22L22 22L22 25L23 25L23 24L24 24L24 23L25 23L25 22L24 22L24 21L25 21L25 20ZM8 21L8 22L9 22L9 21ZM6 22L6 23L7 23L7 22ZM40 23L40 24L41 24L41 23ZM29 24L29 25L30 25L30 24ZM19 25L19 26L20 26L20 25ZM31 25L31 26L30 26L30 27L29 27L29 30L28 30L28 35L31 35L31 34L29 34L29 32L30 32L30 31L29 31L29 30L30 30L30 28L31 28L31 26L32 26L32 25ZM39 25L39 26L40 26L40 28L41 28L41 26L40 26L40 25ZM3 29L3 31L5 31L5 32L7 32L7 31L5 31L5 30L4 30L4 29ZM14 29L14 30L15 30L15 31L18 31L18 29ZM23 31L23 33L24 33L24 31ZM36 31L36 32L37 32L37 31ZM38 31L38 32L39 32L39 31ZM0 32L0 33L1 33L1 32ZM8 32L8 33L9 33L9 34L10 34L10 33L11 33L11 32L10 32L10 33L9 33L9 32ZM25 32L25 34L24 34L24 35L25 35L25 34L26 34L26 35L27 35L27 34L26 34L26 32ZM33 33L33 36L36 36L36 33ZM38 33L38 35L39 35L39 34L40 34L40 33ZM34 34L34 35L35 35L35 34ZM29 36L29 37L30 37L30 36ZM9 37L9 38L10 38L10 37ZM22 37L22 40L23 40L23 38L24 38L24 37ZM26 37L26 38L27 38L27 37ZM0 0L0 7L7 7L7 0ZM1 1L1 6L6 6L6 1ZM2 2L2 5L5 5L5 2ZM34 0L34 7L41 7L41 0ZM35 1L35 6L40 6L40 1ZM36 2L36 5L39 5L39 2ZM0 34L0 41L7 41L7 34ZM1 35L1 40L6 40L6 35ZM2 36L2 39L5 39L5 36Z" fill="#000000"/></g></g></svg>
