<?xml version="1.0" encoding="UTF-8"?>
<svg xmlns="http://www.w3.org/2000/svg" version="1.1" width="200" height="200" viewBox="0 0 200 200"><rect x="0" y="0" width="200" height="200" fill="#ffffff"/><g transform="scale(4.878)"><g transform="translate(0,0)"><path fill-rule="evenodd" d="M9 0L9 1L10 1L10 2L9 2L9 3L8 3L8 5L9 5L9 4L10 4L10 7L9 7L9 6L8 6L8 7L9 7L9 8L11 8L11 9L8 9L8 8L5 8L5 9L8 9L8 11L7 11L7 10L4 10L4 9L2 9L2 8L0 8L0 9L1 9L1 10L0 10L0 11L1 11L1 13L0 13L0 14L1 14L1 15L0 15L0 17L2 17L2 18L3 18L3 16L5 16L5 17L4 17L4 18L5 18L5 17L8 17L8 18L6 18L6 19L7 19L7 20L6 20L6 21L3 21L3 20L5 20L5 19L3 19L3 20L2 20L2 19L1 19L1 18L0 18L0 19L1 19L1 20L0 20L0 27L1 27L1 25L2 25L2 26L3 26L3 24L4 24L4 25L7 25L7 26L4 26L4 27L2 27L2 28L4 28L4 27L5 27L5 28L6 28L6 29L5 29L5 30L1 30L1 28L0 28L0 33L1 33L1 31L2 31L2 33L3 33L3 32L4 32L4 31L5 31L5 33L7 33L7 32L9 32L9 31L7 31L7 30L6 30L6 29L9 29L9 30L11 30L11 28L10 28L10 27L9 27L9 26L10 26L10 25L13 25L13 26L12 26L12 29L13 29L13 26L14 26L14 27L15 27L15 32L12 32L12 31L14 31L14 30L12 30L12 31L10 31L10 33L8 33L8 36L9 36L9 37L12 37L12 38L13 38L13 37L14 37L14 35L16 35L16 34L14 34L14 33L15 33L15 32L16 32L16 29L19 29L19 28L20 28L20 30L19 30L19 31L18 31L18 32L17 32L17 33L18 33L18 35L19 35L19 34L20 34L20 36L18 36L18 37L17 37L17 36L15 36L15 38L14 38L14 39L16 39L16 37L17 37L17 39L18 39L18 40L17 40L17 41L19 41L19 39L18 39L18 37L19 37L19 38L20 38L20 40L21 40L21 38L20 38L20 36L21 36L21 35L22 35L22 41L24 41L24 40L25 40L25 41L26 41L26 40L27 40L27 41L28 41L28 40L27 40L27 39L28 39L28 38L30 38L30 39L31 39L31 38L30 38L30 37L29 37L29 36L28 36L28 35L30 35L30 36L31 36L31 37L32 37L32 38L33 38L33 39L35 39L35 40L33 40L33 41L36 41L36 39L37 39L37 38L39 38L39 39L38 39L38 41L39 41L39 39L40 39L40 40L41 40L41 38L39 38L39 37L38 37L38 35L39 35L39 36L40 36L40 37L41 37L41 36L40 36L40 35L39 35L39 34L40 34L40 31L41 31L41 29L40 29L40 28L39 28L39 27L35 27L35 29L34 29L34 28L33 28L33 27L34 27L34 26L37 26L37 25L38 25L38 24L37 24L37 23L36 23L36 24L34 24L34 23L35 23L35 22L38 22L38 23L39 23L39 26L41 26L41 25L40 25L40 24L41 24L41 23L40 23L40 22L38 22L38 21L39 21L39 20L40 20L40 19L41 19L41 17L40 17L40 16L39 16L39 15L38 15L38 14L37 14L37 13L36 13L36 11L37 11L37 12L38 12L38 10L39 10L39 9L38 9L38 8L36 8L36 9L32 9L32 7L33 7L33 6L32 6L32 7L31 7L31 5L33 5L33 4L31 4L31 5L30 5L30 7L31 7L31 10L28 10L28 7L29 7L29 4L30 4L30 3L29 3L29 1L31 1L31 0L29 0L29 1L28 1L28 3L27 3L27 4L28 4L28 7L27 7L27 5L26 5L26 3L25 3L25 2L24 2L24 3L25 3L25 4L23 4L23 1L22 1L22 0L21 0L21 1L22 1L22 2L21 2L21 5L22 5L22 4L23 4L23 5L24 5L24 7L23 7L23 6L22 6L22 7L23 7L23 8L22 8L22 9L19 9L19 10L18 10L18 11L19 11L19 12L18 12L18 13L19 13L19 14L16 14L16 12L17 12L17 11L16 11L16 9L15 9L15 8L16 8L16 7L17 7L17 6L16 6L16 7L15 7L15 6L14 6L14 7L15 7L15 8L14 8L14 10L15 10L15 11L16 11L16 12L14 12L14 13L13 13L13 11L12 11L12 10L13 10L13 6L12 6L12 7L11 7L11 4L14 4L14 5L15 5L15 4L16 4L16 2L18 2L18 3L17 3L17 4L19 4L19 5L18 5L18 8L17 8L17 9L18 9L18 8L19 8L19 5L20 5L20 4L19 4L19 3L20 3L20 2L19 2L19 1L20 1L20 0L19 0L19 1L17 1L17 0L16 0L16 2L15 2L15 3L12 3L12 2L13 2L13 1L15 1L15 0L13 0L13 1L12 1L12 0ZM25 0L25 1L26 1L26 2L27 2L27 0ZM11 1L11 2L10 2L10 3L11 3L11 2L12 2L12 1ZM31 2L31 3L32 3L32 2ZM28 3L28 4L29 4L29 3ZM20 6L20 7L21 7L21 6ZM25 6L25 9L24 9L24 8L23 8L23 9L22 9L22 10L23 10L23 11L24 11L24 10L25 10L25 12L24 12L24 13L26 13L26 14L27 14L27 13L29 13L29 15L25 15L25 16L28 16L28 17L29 17L29 20L28 20L28 19L27 19L27 17L26 17L26 19L23 19L23 20L22 20L22 19L20 19L20 20L19 20L19 21L18 21L18 23L17 23L17 22L16 22L16 23L15 23L15 24L14 24L14 22L15 22L15 21L13 21L13 20L16 20L16 19L17 19L17 20L18 20L18 17L20 17L20 18L22 18L22 15L23 15L23 17L24 17L24 14L22 14L22 11L21 11L21 10L19 10L19 11L20 11L20 12L19 12L19 13L20 13L20 14L19 14L19 15L21 15L21 17L20 17L20 16L18 16L18 15L16 15L16 17L17 17L17 18L16 18L16 19L14 19L14 18L15 18L15 17L13 17L13 16L15 16L15 13L14 13L14 15L12 15L12 18L13 18L13 20L12 20L12 21L11 21L11 20L10 20L10 21L9 21L9 18L11 18L11 17L10 17L10 16L9 16L9 15L8 15L8 17L9 17L9 18L8 18L8 22L7 22L7 21L6 21L6 22L4 22L4 23L5 23L5 24L7 24L7 25L8 25L8 26L9 26L9 24L8 24L8 22L10 22L10 23L11 23L11 24L12 24L12 23L13 23L13 25L15 25L15 24L16 24L16 25L19 25L19 24L20 24L20 23L21 23L21 25L20 25L20 26L19 26L19 27L21 27L21 29L22 29L22 30L21 30L21 33L20 33L20 31L19 31L19 33L20 33L20 34L21 34L21 33L22 33L22 34L23 34L23 35L24 35L24 34L23 34L23 33L25 33L25 34L26 34L26 35L25 35L25 38L26 38L26 39L25 39L25 40L26 40L26 39L27 39L27 38L26 38L26 36L27 36L27 34L26 34L26 33L28 33L28 34L30 34L30 33L32 33L32 32L36 32L36 31L37 31L37 35L38 35L38 32L39 32L39 31L40 31L40 30L39 30L39 29L37 29L37 28L36 28L36 29L37 29L37 30L36 30L36 31L34 31L34 30L33 30L33 31L32 31L32 32L30 32L30 31L31 31L31 30L30 30L30 31L29 31L29 30L28 30L28 31L27 31L27 28L28 28L28 29L29 29L29 28L30 28L30 27L33 27L33 26L34 26L34 24L33 24L33 23L32 23L32 22L35 22L35 21L37 21L37 20L36 20L36 18L35 18L35 19L34 19L34 17L37 17L37 18L39 18L39 19L38 19L38 20L39 20L39 19L40 19L40 18L39 18L39 17L38 17L38 16L37 16L37 14L36 14L36 16L35 16L35 15L34 15L34 12L35 12L35 11L36 11L36 10L35 10L35 11L34 11L34 10L31 10L31 13L32 13L32 11L33 11L33 15L34 15L34 16L32 16L32 14L31 14L31 16L30 16L30 11L27 11L27 9L26 9L26 8L27 8L27 7L26 7L26 6ZM29 8L29 9L30 9L30 8ZM23 9L23 10L24 10L24 9ZM37 9L37 10L38 10L38 9ZM10 10L10 11L9 11L9 13L11 13L11 14L10 14L10 15L11 15L11 14L13 14L13 13L11 13L11 12L12 12L12 11L11 11L11 10ZM3 11L3 12L5 12L5 14L7 14L7 13L8 13L8 12L7 12L7 11L6 11L6 12L5 12L5 11ZM26 11L26 12L27 12L27 11ZM39 11L39 13L40 13L40 14L41 14L41 11ZM6 12L6 13L7 13L7 12ZM1 13L1 14L2 14L2 15L1 15L1 16L2 16L2 15L4 15L4 13L3 13L3 14L2 14L2 13ZM21 14L21 15L22 15L22 14ZM5 15L5 16L7 16L7 15ZM17 16L17 17L18 17L18 16ZM29 16L29 17L30 17L30 16ZM31 17L31 18L30 18L30 20L29 20L29 21L30 21L30 24L32 24L32 23L31 23L31 22L32 22L32 21L31 21L31 20L32 20L32 17ZM26 19L26 20L25 20L25 21L24 21L24 20L23 20L23 22L24 22L24 23L23 23L23 26L25 26L25 22L26 22L26 21L27 21L27 23L26 23L26 24L27 24L27 23L28 23L28 24L29 24L29 22L28 22L28 20L27 20L27 19ZM33 19L33 21L34 21L34 19ZM20 20L20 21L19 21L19 22L21 22L21 20ZM1 21L1 22L2 22L2 23L1 23L1 24L2 24L2 23L3 23L3 21ZM12 21L12 22L13 22L13 21ZM6 22L6 23L7 23L7 22ZM36 24L36 25L37 25L37 24ZM27 25L27 27L26 27L26 28L25 28L25 27L24 27L24 28L25 28L25 29L23 29L23 31L22 31L22 33L23 33L23 32L25 32L25 33L26 33L26 32L25 32L25 31L26 31L26 30L25 30L25 29L26 29L26 28L27 28L27 27L28 27L28 28L29 28L29 26L32 26L32 25ZM16 26L16 27L17 27L17 28L18 28L18 27L17 27L17 26ZM6 27L6 28L7 28L7 27ZM22 27L22 28L23 28L23 27ZM32 28L32 29L33 29L33 28ZM5 30L5 31L6 31L6 32L7 32L7 31L6 31L6 30ZM37 30L37 31L38 31L38 30ZM29 32L29 33L30 33L30 32ZM10 33L10 34L11 34L11 35L9 35L9 36L12 36L12 37L13 37L13 36L12 36L12 35L13 35L13 34L11 34L11 33ZM33 33L33 36L36 36L36 33ZM34 34L34 35L35 35L35 34ZM31 35L31 36L32 36L32 35ZM23 36L23 37L24 37L24 36ZM33 37L33 38L35 38L35 37ZM36 37L36 38L37 38L37 37ZM10 38L10 39L8 39L8 41L11 41L11 40L10 40L10 39L11 39L11 38ZM23 38L23 39L24 39L24 38ZM12 39L12 41L16 41L16 40L13 40L13 39ZM29 40L29 41L30 41L30 40ZM0 0L0 7L7 7L7 0ZM1 1L1 6L6 6L6 1ZM2 2L2 5L5 5L5 2ZM34 0L34 7L41 7L41 0ZM35 1L35 6L40 6L40 1ZM36 2L36 5L39 5L39 2ZM0 34L0 41L7 41L7 34ZM1 35L1 40L6 40L6 35ZM2 36L2 39L5 39L5 36Z" fill="#000000"/></g></g></svg>
