<?xml version="1.0" encoding="UTF-8"?>
<svg xmlns="http://www.w3.org/2000/svg" version="1.1" width="200" height="200" viewBox="0 0 200 200"><rect x="0" y="0" width="200" height="200" fill="#ffffff"/><g transform="scale(5.128)"><g transform="translate(1,1)"><path fill-rule="evenodd" d="M8 0L8 1L9 1L9 3L8 3L8 4L9 4L9 6L8 6L8 7L9 7L9 8L8 8L8 9L7 9L7 8L4 8L4 9L3 9L3 8L2 8L2 10L1 10L1 11L2 11L2 12L1 12L1 13L0 13L0 14L2 14L2 12L4 12L4 11L5 11L5 10L6 10L6 11L7 11L7 10L8 10L8 13L7 13L7 12L5 12L5 13L7 13L7 14L4 14L4 15L3 15L3 16L1 16L1 17L0 17L0 18L1 18L1 17L2 17L2 19L3 19L3 20L4 20L4 21L3 21L3 23L2 23L2 24L3 24L3 25L2 25L2 26L3 26L3 25L4 25L4 28L2 28L2 27L1 27L1 26L0 26L0 27L1 27L1 28L0 28L0 29L1 29L1 28L2 28L2 29L8 29L8 30L11 30L11 31L8 31L8 33L9 33L9 34L8 34L8 35L10 35L10 36L9 36L9 37L10 37L10 36L11 36L11 37L17 37L17 36L16 36L16 35L18 35L18 36L19 36L19 35L18 35L18 34L20 34L20 37L22 37L22 36L23 36L23 37L24 37L24 36L25 36L25 37L26 37L26 36L27 36L27 34L28 34L28 37L32 37L32 36L33 36L33 37L34 37L34 35L33 35L33 33L34 33L34 34L36 34L36 35L35 35L35 37L37 37L37 36L36 36L36 35L37 35L37 28L36 28L36 27L37 27L37 20L36 20L36 19L37 19L37 17L36 17L36 16L37 16L37 13L36 13L36 12L37 12L37 8L36 8L36 9L34 9L34 8L33 8L33 9L32 9L32 10L33 10L33 11L32 11L32 12L33 12L33 14L32 14L32 15L33 15L33 14L34 14L34 15L35 15L35 18L34 18L34 16L33 16L33 18L32 18L32 17L31 17L31 15L30 15L30 14L31 14L31 12L30 12L30 11L31 11L31 10L30 10L30 8L29 8L29 2L28 2L28 1L29 1L29 0L27 0L27 2L28 2L28 4L27 4L27 3L26 3L26 4L25 4L25 3L24 3L24 0L20 0L20 1L19 1L19 2L21 2L21 4L20 4L20 3L16 3L16 4L15 4L15 3L14 3L14 2L15 2L15 0L13 0L13 1L14 1L14 2L12 2L12 4L10 4L10 1L12 1L12 0L10 0L10 1L9 1L9 0ZM16 0L16 2L17 2L17 1L18 1L18 0ZM21 1L21 2L22 2L22 3L23 3L23 4L22 4L22 6L21 6L21 5L20 5L20 6L19 6L19 8L18 8L18 5L19 5L19 4L18 4L18 5L17 5L17 7L16 7L16 6L15 6L15 4L14 4L14 3L13 3L13 4L12 4L12 6L11 6L11 8L12 8L12 6L13 6L13 9L15 9L15 10L16 10L16 11L18 11L18 14L17 14L17 12L16 12L16 13L15 13L15 11L14 11L14 12L13 12L13 13L11 13L11 12L12 12L12 10L11 10L11 9L8 9L8 10L9 10L9 13L8 13L8 14L9 14L9 15L6 15L6 16L5 16L5 15L4 15L4 16L3 16L3 17L4 17L4 18L3 18L3 19L4 19L4 20L5 20L5 21L4 21L4 22L5 22L5 23L3 23L3 24L4 24L4 25L5 25L5 26L8 26L8 27L10 27L10 28L8 28L8 29L10 29L10 28L12 28L12 29L11 29L11 30L12 30L12 31L13 31L13 30L14 30L14 32L13 32L13 34L12 34L12 36L13 36L13 34L14 34L14 36L15 36L15 34L16 34L16 33L15 33L15 30L14 30L14 28L15 28L15 27L16 27L16 28L17 28L17 29L16 29L16 31L17 31L17 34L18 34L18 32L19 32L19 33L20 33L20 34L22 34L22 35L21 35L21 36L22 36L22 35L23 35L23 36L24 36L24 35L23 35L23 34L22 34L22 33L24 33L24 32L25 32L25 31L26 31L26 32L27 32L27 33L28 33L28 31L26 31L26 30L25 30L25 31L24 31L24 29L25 29L25 25L26 25L26 24L25 24L25 23L26 23L26 22L27 22L27 24L28 24L28 23L29 23L29 27L31 27L31 25L32 25L32 26L33 26L33 25L34 25L34 26L35 26L35 27L34 27L34 29L33 29L33 32L34 32L34 33L35 33L35 32L36 32L36 30L35 30L35 29L36 29L36 28L35 28L35 27L36 27L36 26L35 26L35 25L36 25L36 22L35 22L35 23L32 23L32 22L33 22L33 21L35 21L35 19L34 19L34 18L33 18L33 19L32 19L32 18L31 18L31 19L28 19L28 18L30 18L30 16L28 16L28 13L29 13L29 14L30 14L30 12L29 12L29 11L30 11L30 10L29 10L29 8L28 8L28 6L27 6L27 7L26 7L26 5L25 5L25 4L24 4L24 3L23 3L23 2L22 2L22 1ZM13 4L13 6L14 6L14 7L15 7L15 6L14 6L14 4ZM23 4L23 5L24 5L24 7L25 7L25 5L24 5L24 4ZM9 6L9 7L10 7L10 6ZM20 6L20 7L21 7L21 9L19 9L19 14L18 14L18 15L17 15L17 18L19 18L19 20L18 20L18 21L19 21L19 22L18 22L18 23L21 23L21 26L19 26L19 25L20 25L20 24L19 24L19 25L18 25L18 26L17 26L17 25L16 25L16 22L17 22L17 21L16 21L16 20L17 20L17 19L16 19L16 20L15 20L15 18L16 18L16 16L15 16L15 15L16 15L16 14L15 14L15 13L13 13L13 14L11 14L11 13L9 13L9 14L11 14L11 15L13 15L13 16L12 16L12 17L11 17L11 16L10 16L10 15L9 15L9 17L8 17L8 16L6 16L6 17L5 17L5 18L4 18L4 19L5 19L5 18L6 18L6 19L7 19L7 20L6 20L6 21L5 21L5 22L6 22L6 23L5 23L5 24L6 24L6 25L7 25L7 24L6 24L6 23L8 23L8 22L9 22L9 19L7 19L7 18L10 18L10 17L11 17L11 18L12 18L12 19L13 19L13 18L14 18L14 20L11 20L11 19L10 19L10 22L11 22L11 21L12 21L12 23L10 23L10 24L9 24L9 25L8 25L8 26L9 26L9 25L11 25L11 24L12 24L12 23L13 23L13 21L14 21L14 22L15 22L15 25L16 25L16 27L20 27L20 28L18 28L18 29L17 29L17 30L20 30L20 28L22 28L22 27L23 27L23 28L24 28L24 27L23 27L23 26L24 26L24 24L23 24L23 22L22 22L22 20L25 20L25 22L26 22L26 19L27 19L27 17L28 17L28 16L26 16L26 15L27 15L27 12L28 12L28 11L27 11L27 10L28 10L28 8L27 8L27 10L26 10L26 9L24 9L24 8L23 8L23 10L24 10L24 11L21 11L21 12L20 12L20 10L21 10L21 9L22 9L22 7L23 7L23 6L22 6L22 7L21 7L21 6ZM15 8L15 9L16 9L16 10L17 10L17 9L16 9L16 8ZM4 9L4 10L5 10L5 9ZM6 9L6 10L7 10L7 9ZM33 9L33 10L34 10L34 13L35 13L35 15L36 15L36 13L35 13L35 12L36 12L36 11L35 11L35 10L34 10L34 9ZM25 10L25 11L24 11L24 12L22 12L22 13L25 13L25 11L26 11L26 10ZM10 11L10 12L11 12L11 11ZM13 14L13 15L14 15L14 14ZM21 14L21 15L22 15L22 16L23 16L23 18L21 18L21 19L26 19L26 17L25 17L25 15L26 15L26 14L24 14L24 16L23 16L23 15L22 15L22 14ZM18 15L18 17L20 17L20 15ZM6 17L6 18L7 18L7 17ZM12 17L12 18L13 18L13 17ZM14 17L14 18L15 18L15 17ZM24 17L24 18L25 18L25 17ZM0 19L0 20L1 20L1 21L0 21L0 23L1 23L1 22L2 22L2 20L1 20L1 19ZM31 19L31 20L27 20L27 21L30 21L30 23L31 23L31 21L32 21L32 19ZM33 19L33 20L34 20L34 19ZM14 20L14 21L15 21L15 22L16 22L16 21L15 21L15 20ZM19 20L19 21L20 21L20 22L21 22L21 21L20 21L20 20ZM6 21L6 22L7 22L7 21ZM22 24L22 26L23 26L23 24ZM30 24L30 25L31 25L31 24ZM32 24L32 25L33 25L33 24ZM12 25L12 26L11 26L11 27L12 27L12 26L14 26L14 27L13 27L13 28L14 28L14 27L15 27L15 26L14 26L14 25ZM5 27L5 28L7 28L7 27ZM26 27L26 28L28 28L28 27ZM32 27L32 28L33 28L33 27ZM22 29L22 32L24 32L24 31L23 31L23 29ZM29 29L29 32L32 32L32 29ZM30 30L30 31L31 31L31 30ZM34 30L34 31L35 31L35 30ZM20 31L20 33L21 33L21 31ZM9 32L9 33L11 33L11 32ZM14 33L14 34L15 34L15 33ZM25 33L25 35L26 35L26 33ZM30 33L30 34L29 34L29 35L30 35L30 36L31 36L31 34L32 34L32 33ZM10 34L10 35L11 35L11 34ZM0 0L0 7L7 7L7 0ZM1 1L1 6L6 6L6 1ZM2 2L2 5L5 5L5 2ZM30 0L30 7L37 7L37 0ZM31 1L31 6L36 6L36 1ZM32 2L32 5L35 5L35 2ZM0 30L0 37L7 37L7 30ZM1 31L1 36L6 36L6 31ZM2 32L2 35L5 35L5 32Z" fill="#000000"/></g></g></svg>
