<?xml version="1.0" encoding="UTF-8"?>
<svg xmlns="http://www.w3.org/2000/svg" version="1.1" width="200" height="200" viewBox="0 0 200 200"><rect x="0" y="0" width="200" height="200" fill="#ffffff"/><g transform="scale(5.128)"><g transform="translate(1,1)"><path fill-rule="evenodd" d="M8 0L8 1L9 1L9 0ZM10 0L10 2L11 2L11 3L8 3L8 4L9 4L9 6L8 6L8 7L9 7L9 8L8 8L8 9L7 9L7 8L4 8L4 9L5 9L5 10L3 10L3 11L5 11L5 10L6 10L6 11L7 11L7 10L8 10L8 14L5 14L5 13L7 13L7 12L5 12L5 13L4 13L4 15L3 15L3 16L1 16L1 17L0 17L0 18L1 18L1 17L2 17L2 19L3 19L3 22L2 22L2 20L1 20L1 19L0 19L0 20L1 20L1 21L0 21L0 23L1 23L1 26L0 26L0 27L1 27L1 28L0 28L0 29L1 29L1 28L2 28L2 29L8 29L8 30L10 30L10 32L9 32L9 31L8 31L8 33L12 33L12 34L13 34L13 35L12 35L12 37L17 37L17 36L18 36L18 37L19 37L19 36L20 36L20 37L22 37L22 36L24 36L24 35L22 35L22 34L24 34L24 33L22 33L22 34L21 34L21 31L19 31L19 29L20 29L20 30L21 30L21 29L22 29L22 28L23 28L23 29L24 29L24 31L23 31L23 30L22 30L22 32L24 32L24 31L25 31L25 33L26 33L26 35L25 35L25 37L26 37L26 36L27 36L27 34L28 34L28 37L32 37L32 36L33 36L33 37L34 37L34 35L33 35L33 33L34 33L34 34L36 34L36 35L35 35L35 37L37 37L37 36L36 36L36 35L37 35L37 28L36 28L36 27L37 27L37 17L36 17L36 16L37 16L37 13L36 13L36 12L37 12L37 8L36 8L36 9L34 9L34 8L33 8L33 9L34 9L34 10L32 10L32 9L31 9L31 10L30 10L30 11L29 11L29 9L30 9L30 8L29 8L29 2L28 2L28 1L29 1L29 0L27 0L27 2L28 2L28 4L27 4L27 3L26 3L26 5L25 5L25 3L24 3L24 0L21 0L21 1L20 1L20 0L18 0L18 1L19 1L19 3L17 3L17 4L15 4L15 3L14 3L14 2L15 2L15 0L12 0L12 1L11 1L11 0ZM16 0L16 2L17 2L17 0ZM12 1L12 3L13 3L13 4L12 4L12 6L11 6L11 8L12 8L12 6L13 6L13 10L14 10L14 6L13 6L13 5L15 5L15 4L14 4L14 3L13 3L13 2L14 2L14 1ZM21 1L21 2L22 2L22 3L23 3L23 4L22 4L22 6L21 6L21 5L20 5L20 6L19 6L19 8L18 8L18 5L19 5L19 4L21 4L21 3L19 3L19 4L18 4L18 5L16 5L16 6L15 6L15 7L16 7L16 6L17 6L17 11L18 11L18 14L17 14L17 12L14 12L14 11L13 11L13 12L12 12L12 10L11 10L11 9L8 9L8 10L9 10L9 14L8 14L8 15L6 15L6 16L7 16L7 17L5 17L5 15L4 15L4 16L3 16L3 17L5 17L5 19L4 19L4 18L3 18L3 19L4 19L4 22L5 22L5 23L2 23L2 24L3 24L3 25L5 25L5 26L8 26L8 27L10 27L10 28L8 28L8 29L10 29L10 28L12 28L12 29L11 29L11 31L12 31L12 32L13 32L13 34L14 34L14 36L15 36L15 34L16 34L16 33L15 33L15 30L14 30L14 29L13 29L13 27L14 27L14 26L15 26L15 25L14 25L14 23L12 23L12 21L11 21L11 19L10 19L10 20L9 20L9 22L8 22L8 23L6 23L6 22L7 22L7 21L6 21L6 20L8 20L8 19L6 19L6 18L8 18L8 15L9 15L9 14L10 14L10 16L9 16L9 17L10 17L10 16L11 16L11 14L10 14L10 13L11 13L11 12L12 12L12 13L13 13L13 12L14 12L14 14L12 14L12 18L13 18L13 19L12 19L12 20L14 20L14 21L15 21L15 23L16 23L16 25L17 25L17 26L16 26L16 27L15 27L15 29L16 29L16 31L17 31L17 33L19 33L19 34L20 34L20 32L19 32L19 31L17 31L17 29L18 29L18 28L20 28L20 27L17 27L17 26L18 26L18 25L19 25L19 26L21 26L21 25L22 25L22 26L23 26L23 24L22 24L22 22L24 22L24 24L25 24L25 25L26 25L26 26L27 26L27 27L26 27L26 28L27 28L27 29L28 29L28 28L29 28L29 27L31 27L31 28L32 28L32 27L33 27L33 26L32 26L32 24L33 24L33 25L34 25L34 26L35 26L35 27L34 27L34 28L33 28L33 32L34 32L34 33L35 33L35 32L36 32L36 30L35 30L35 29L36 29L36 28L35 28L35 27L36 27L36 26L35 26L35 25L36 25L36 22L35 22L35 23L32 23L32 22L33 22L33 21L36 21L36 19L34 19L34 18L35 18L35 15L36 15L36 13L35 13L35 12L36 12L36 11L35 11L35 10L34 10L34 13L35 13L35 15L34 15L34 14L33 14L33 11L32 11L32 12L31 12L31 11L30 11L30 12L28 12L28 11L27 11L27 12L28 12L28 13L27 13L27 15L26 15L26 14L24 14L24 16L23 16L23 15L22 15L22 14L20 14L20 13L22 13L22 12L23 12L23 13L25 13L25 12L24 12L24 9L23 9L23 8L25 8L25 9L26 9L26 8L25 8L25 7L26 7L26 6L27 6L27 8L28 8L28 6L27 6L27 5L26 5L26 6L25 6L25 7L24 7L24 5L23 5L23 4L24 4L24 3L23 3L23 2L22 2L22 1ZM9 6L9 7L10 7L10 6ZM20 6L20 7L21 7L21 6ZM22 6L22 7L23 7L23 6ZM2 8L2 9L0 9L0 10L1 10L1 11L2 11L2 9L3 9L3 8ZM15 8L15 11L16 11L16 8ZM21 8L21 9L19 9L19 13L20 13L20 10L21 10L21 11L22 11L22 10L23 10L23 9L22 9L22 8ZM6 9L6 10L7 10L7 9ZM21 9L21 10L22 10L22 9ZM25 10L25 11L26 11L26 10ZM10 11L10 12L11 12L11 11ZM0 12L0 14L2 14L2 13L3 13L3 12ZM30 12L30 14L29 14L29 13L28 13L28 16L26 16L26 15L25 15L25 17L24 17L24 18L25 18L25 17L26 17L26 19L21 19L21 20L19 20L19 21L18 21L18 23L21 23L21 22L22 22L22 20L25 20L25 21L24 21L24 22L25 22L25 23L26 23L26 22L25 22L25 21L26 21L26 19L27 19L27 17L28 17L28 16L30 16L30 18L28 18L28 19L31 19L31 20L27 20L27 21L30 21L30 22L29 22L29 23L28 23L28 24L27 24L27 26L28 26L28 24L29 24L29 26L30 26L30 24L31 24L31 23L30 23L30 22L31 22L31 21L32 21L32 19L33 19L33 20L34 20L34 19L33 19L33 18L34 18L34 16L33 16L33 18L32 18L32 17L31 17L31 15L30 15L30 14L31 14L31 12ZM14 14L14 15L13 15L13 18L14 18L14 20L15 20L15 21L17 21L17 20L18 20L18 19L19 19L19 18L20 18L20 17L21 17L21 18L23 18L23 16L22 16L22 15L21 15L21 16L20 16L20 14L19 14L19 16L18 16L18 15L17 15L17 17L19 17L19 18L18 18L18 19L16 19L16 20L15 20L15 18L16 18L16 16L15 16L15 15L16 15L16 14ZM32 14L32 15L33 15L33 14ZM19 16L19 17L20 17L20 16ZM14 17L14 18L15 18L15 17ZM31 18L31 19L32 19L32 18ZM10 21L10 22L11 22L11 21ZM20 21L20 22L21 22L21 21ZM16 22L16 23L17 23L17 22ZM5 23L5 24L6 24L6 25L7 25L7 24L6 24L6 23ZM10 23L10 24L9 24L9 25L8 25L8 26L9 26L9 25L11 25L11 24L12 24L12 23ZM19 24L19 25L20 25L20 24ZM12 25L12 26L11 26L11 27L12 27L12 26L13 26L13 25ZM1 26L1 27L2 27L2 26ZM3 26L3 28L4 28L4 26ZM5 27L5 28L7 28L7 27ZM16 27L16 29L17 29L17 27ZM23 27L23 28L24 28L24 29L25 29L25 28L24 28L24 27ZM27 27L27 28L28 28L28 27ZM34 28L34 29L35 29L35 28ZM29 29L29 32L32 32L32 29ZM13 30L13 32L14 32L14 30ZM25 30L25 31L26 31L26 32L27 32L27 33L28 33L28 31L26 31L26 30ZM30 30L30 31L31 31L31 30ZM34 30L34 31L35 31L35 30ZM14 33L14 34L15 34L15 33ZM30 33L30 34L29 34L29 35L30 35L30 36L31 36L31 34L32 34L32 33ZM8 34L8 35L11 35L11 34ZM16 35L16 36L17 36L17 35ZM21 35L21 36L22 36L22 35ZM9 36L9 37L11 37L11 36ZM0 0L0 7L7 7L7 0ZM1 1L1 6L6 6L6 1ZM2 2L2 5L5 5L5 2ZM30 0L30 7L37 7L37 0ZM31 1L31 6L36 6L36 1ZM32 2L32 5L35 5L35 2ZM0 30L0 37L7 37L7 30ZM1 31L1 36L6 36L6 31ZM2 32L2 35L5 35L5 32Z" fill="#000000"/></g></g></svg>
