<?xml version="1.0" encoding="UTF-8"?>
<svg xmlns="http://www.w3.org/2000/svg" version="1.1" width="200" height="200" viewBox="0 0 200 200"><rect x="0" y="0" width="200" height="200" fill="#ffffff"/><g transform="scale(4.878)"><g transform="translate(0,0)"><path fill-rule="evenodd" d="M8 0L8 1L9 1L9 2L8 2L8 5L9 5L9 6L8 6L8 7L9 7L9 8L8 8L8 9L7 9L7 8L6 8L6 9L5 9L5 11L8 11L8 12L6 12L6 13L7 13L7 14L6 14L6 15L4 15L4 14L5 14L5 13L3 13L3 14L2 14L2 12L1 12L1 11L0 11L0 12L1 12L1 15L0 15L0 16L1 16L1 18L0 18L0 24L1 24L1 23L4 23L4 22L5 22L5 25L7 25L7 26L4 26L4 25L3 25L3 24L2 24L2 25L0 25L0 29L1 29L1 30L0 30L0 31L1 31L1 30L2 30L2 32L1 32L1 33L2 33L2 32L3 32L3 33L4 33L4 32L5 32L5 33L7 33L7 32L5 32L5 28L6 28L6 29L7 29L7 28L8 28L8 27L9 27L9 25L10 25L10 24L8 24L8 23L9 23L9 22L10 22L10 21L12 21L12 22L11 22L11 23L13 23L13 24L12 24L12 25L11 25L11 26L13 26L13 27L12 27L12 28L11 28L11 27L10 27L10 28L9 28L9 29L12 29L12 30L11 30L11 31L10 31L10 30L9 30L9 31L8 31L8 30L6 30L6 31L8 31L8 32L9 32L9 33L8 33L8 34L9 34L9 33L10 33L10 34L11 34L11 35L10 35L10 36L9 36L9 37L8 37L8 41L12 41L12 40L13 40L13 41L14 41L14 40L17 40L17 39L18 39L18 40L19 40L19 39L21 39L21 40L20 40L20 41L23 41L23 40L24 40L24 41L27 41L27 40L29 40L29 37L30 37L30 38L31 38L31 39L32 39L32 41L33 41L33 40L34 40L34 41L35 41L35 40L36 40L36 41L37 41L37 40L36 40L36 38L37 38L37 39L38 39L38 37L39 37L39 36L41 36L41 35L40 35L40 34L41 34L41 32L40 32L40 31L39 31L39 30L40 30L40 29L39 29L39 30L38 30L38 26L39 26L39 28L41 28L41 24L40 24L40 23L39 23L39 24L38 24L38 23L37 23L37 22L41 22L41 20L40 20L40 19L37 19L37 18L38 18L38 17L37 17L37 16L38 16L38 15L37 15L37 14L35 14L35 13L34 13L34 14L32 14L32 12L33 12L33 11L34 11L34 12L37 12L37 13L38 13L38 14L39 14L39 16L41 16L41 13L40 13L40 10L41 10L41 8L40 8L40 9L39 9L39 8L36 8L36 9L35 9L35 10L32 10L32 9L31 9L31 8L33 8L33 9L34 9L34 8L33 8L33 6L32 6L32 4L33 4L33 3L32 3L32 4L30 4L30 3L31 3L31 1L32 1L32 2L33 2L33 0L30 0L30 1L29 1L29 0L28 0L28 2L27 2L27 3L26 3L26 2L25 2L25 1L24 1L24 0L20 0L20 2L21 2L21 1L22 1L22 2L25 2L25 5L26 5L26 8L25 8L25 9L26 9L26 11L25 11L25 14L26 14L26 16L25 16L25 15L24 15L24 16L22 16L22 15L23 15L23 13L22 13L22 15L21 15L21 17L23 17L23 18L24 18L24 19L22 19L22 18L21 18L21 19L19 19L19 22L18 22L18 19L17 19L17 18L16 18L16 17L15 17L15 19L14 19L14 16L15 16L15 15L14 15L14 16L12 16L12 14L16 14L16 13L17 13L17 15L16 15L16 16L17 16L17 15L18 15L18 17L19 17L19 16L20 16L20 14L21 14L21 12L15 12L15 13L14 13L14 11L15 11L15 10L14 10L14 11L13 11L13 9L16 9L16 10L17 10L17 11L18 11L18 10L17 10L17 9L19 9L19 10L20 10L20 11L21 11L21 10L20 10L20 8L21 8L21 9L22 9L22 11L23 11L23 12L24 12L24 9L22 9L22 8L21 8L21 6L20 6L20 5L21 5L21 3L20 3L20 4L19 4L19 3L17 3L17 1L18 1L18 0L17 0L17 1L16 1L16 4L15 4L15 5L16 5L16 7L15 7L15 6L14 6L14 5L13 5L13 4L14 4L14 2L15 2L15 1L14 1L14 2L12 2L12 3L11 3L11 2L10 2L10 0ZM11 0L11 1L12 1L12 0ZM9 2L9 5L12 5L12 6L11 6L11 7L10 7L10 6L9 6L9 7L10 7L10 8L9 8L9 9L10 9L10 8L11 8L11 10L8 10L8 11L9 11L9 13L8 13L8 14L9 14L9 13L10 13L10 14L11 14L11 13L12 13L12 12L13 12L13 11L12 11L12 9L13 9L13 8L14 8L14 6L13 6L13 5L12 5L12 4L13 4L13 3L12 3L12 4L11 4L11 3L10 3L10 2ZM28 2L28 3L27 3L27 4L28 4L28 3L30 3L30 2ZM16 4L16 5L17 5L17 7L16 7L16 8L17 8L17 7L18 7L18 8L20 8L20 6L19 6L19 5L17 5L17 4ZM22 5L22 7L23 7L23 5ZM27 5L27 7L28 7L28 8L27 8L27 13L28 13L28 8L29 8L29 7L30 7L30 6L31 6L31 7L32 7L32 6L31 6L31 5ZM12 6L12 7L13 7L13 6ZM18 6L18 7L19 7L19 6ZM24 6L24 7L25 7L25 6ZM28 6L28 7L29 7L29 6ZM0 8L0 9L4 9L4 8ZM6 9L6 10L7 10L7 9ZM29 9L29 12L31 12L31 11L32 11L32 10L31 10L31 9ZM37 9L37 10L36 10L36 11L37 11L37 12L39 12L39 11L37 11L37 10L39 10L39 9ZM2 10L2 11L3 11L3 12L4 12L4 10ZM30 13L30 14L27 14L27 15L29 15L29 16L26 16L26 17L25 17L25 16L24 16L24 18L25 18L25 21L26 21L26 20L27 20L27 25L28 25L28 24L30 24L30 25L29 25L29 26L26 26L26 25L24 25L24 24L25 24L25 23L26 23L26 22L24 22L24 24L23 24L23 25L22 25L22 23L23 23L23 22L22 22L22 23L21 23L21 24L18 24L18 22L17 22L17 20L16 20L16 19L15 19L15 22L14 22L14 19L12 19L12 18L10 18L10 17L12 17L12 16L11 16L11 15L10 15L10 17L9 17L9 18L8 18L8 19L5 19L5 22L7 22L7 23L6 23L6 24L7 24L7 25L8 25L8 24L7 24L7 23L8 23L8 22L9 22L9 21L10 21L10 19L11 19L11 20L13 20L13 23L15 23L15 24L16 24L16 23L17 23L17 24L18 24L18 25L17 25L17 26L18 26L18 27L16 27L16 26L15 26L15 25L14 25L14 26L15 26L15 29L14 29L14 27L13 27L13 28L12 28L12 29L14 29L14 30L13 30L13 32L12 32L12 31L11 31L11 32L12 32L12 33L14 33L14 30L15 30L15 29L16 29L16 28L17 28L17 30L18 30L18 33L17 33L17 34L14 34L14 35L11 35L11 36L10 36L10 40L12 40L12 38L14 38L14 36L16 36L16 38L15 38L15 39L16 39L16 38L18 38L18 37L17 37L17 36L18 36L18 35L21 35L21 38L22 38L22 40L23 40L23 39L25 39L25 40L27 40L27 39L28 39L28 38L27 38L27 35L28 35L28 33L27 33L27 32L29 32L29 31L30 31L30 32L31 32L31 31L33 31L33 32L35 32L35 31L36 31L36 32L38 32L38 30L37 30L37 29L36 29L36 28L33 28L33 27L34 27L34 25L35 25L35 27L36 27L36 26L38 26L38 24L37 24L37 23L35 23L35 24L33 24L33 23L34 23L34 22L30 22L30 21L31 21L31 20L32 20L32 21L34 21L34 20L35 20L35 21L36 21L36 20L37 20L37 21L38 21L38 20L37 20L37 19L36 19L36 20L35 20L35 16L34 16L34 15L35 15L35 14L34 14L34 15L31 15L31 13ZM39 13L39 14L40 14L40 13ZM18 14L18 15L19 15L19 14ZM6 15L6 16L4 16L4 18L3 18L3 17L2 17L2 19L1 19L1 20L3 20L3 21L2 21L2 22L4 22L4 20L3 20L3 19L4 19L4 18L5 18L5 17L6 17L6 18L7 18L7 17L8 17L8 16L7 16L7 15ZM30 15L30 18L29 18L29 19L28 19L28 17L27 17L27 18L26 18L26 19L28 19L28 23L30 23L30 22L29 22L29 21L30 21L30 19L31 19L31 15ZM36 15L36 16L37 16L37 15ZM6 16L6 17L7 17L7 16ZM32 16L32 17L34 17L34 16ZM36 17L36 18L37 18L37 17ZM39 17L39 18L40 18L40 17ZM9 18L9 19L10 19L10 18ZM21 19L21 20L22 20L22 19ZM33 19L33 20L34 20L34 19ZM6 20L6 21L7 21L7 22L8 22L8 21L9 21L9 20ZM20 21L20 22L19 22L19 23L20 23L20 22L21 22L21 21ZM31 24L31 26L30 26L30 28L31 28L31 29L32 29L32 30L34 30L34 29L33 29L33 28L32 28L32 26L33 26L33 24ZM2 25L2 26L3 26L3 29L4 29L4 28L5 28L5 27L4 27L4 26L3 26L3 25ZM19 25L19 27L18 27L18 28L20 28L20 26L21 26L21 29L18 29L18 30L22 30L22 32L19 32L19 33L18 33L18 34L17 34L17 35L16 35L16 36L17 36L17 35L18 35L18 34L21 34L21 33L22 33L22 35L23 35L23 37L22 37L22 38L23 38L23 37L26 37L26 35L27 35L27 34L25 34L25 32L24 32L24 33L22 33L22 32L23 32L23 30L24 30L24 31L25 31L25 30L26 30L26 32L27 32L27 31L29 31L29 30L30 30L30 29L29 29L29 30L28 30L28 29L27 29L27 28L28 28L28 27L27 27L27 28L25 28L25 27L26 27L26 26L24 26L24 28L23 28L23 29L22 29L22 27L23 27L23 26L21 26L21 25ZM7 26L7 27L6 27L6 28L7 28L7 27L8 27L8 26ZM1 28L1 29L2 29L2 28ZM24 29L24 30L25 30L25 29ZM26 29L26 30L27 30L27 29ZM35 29L35 30L36 30L36 29ZM9 31L9 32L10 32L10 31ZM16 31L16 32L17 32L17 31ZM39 32L39 33L37 33L37 37L38 37L38 36L39 36L39 34L40 34L40 32ZM29 33L29 36L28 36L28 37L29 37L29 36L30 36L30 37L31 37L31 38L32 38L32 39L35 39L35 38L36 38L36 37L32 37L32 36L31 36L31 34L30 34L30 33ZM33 33L33 36L36 36L36 33ZM24 34L24 36L25 36L25 34ZM34 34L34 35L35 35L35 34ZM19 36L19 37L20 37L20 36ZM11 37L11 38L12 38L12 37ZM13 39L13 40L14 40L14 39ZM39 39L39 41L40 41L40 39ZM30 40L30 41L31 41L31 40ZM0 0L0 7L7 7L7 0ZM1 1L1 6L6 6L6 1ZM2 2L2 5L5 5L5 2ZM34 0L34 7L41 7L41 0ZM35 1L35 6L40 6L40 1ZM36 2L36 5L39 5L39 2ZM0 34L0 41L7 41L7 34ZM1 35L1 40L6 40L6 35ZM2 36L2 39L5 39L5 36Z" fill="#000000"/></g></g></svg>
