<?xml version="1.0" encoding="UTF-8"?>
<svg xmlns="http://www.w3.org/2000/svg" version="1.1" width="200" height="200" viewBox="0 0 200 200"><rect x="0" y="0" width="200" height="200" fill="#ffffff"/><g transform="scale(4.878)"><g transform="translate(0,0)"><path fill-rule="evenodd" d="M11 0L11 1L8 1L8 2L9 2L9 3L8 3L8 4L9 4L9 5L8 5L8 7L9 7L9 8L6 8L6 9L7 9L7 10L6 10L6 11L8 11L8 13L7 13L7 12L5 12L5 15L4 15L4 13L3 13L3 12L4 12L4 11L3 11L3 10L2 10L2 9L4 9L4 10L5 10L5 8L0 8L0 9L1 9L1 10L2 10L2 11L3 11L3 12L2 12L2 13L0 13L0 14L1 14L1 15L0 15L0 17L1 17L1 15L2 15L2 14L3 14L3 16L5 16L5 17L8 17L8 18L9 18L9 21L8 21L8 22L6 22L6 23L7 23L7 24L5 24L5 23L4 23L4 22L3 22L3 21L2 21L2 18L0 18L0 20L1 20L1 21L0 21L0 22L1 22L1 24L0 24L0 27L1 27L1 28L2 28L2 29L0 29L0 33L1 33L1 30L2 30L2 29L3 29L3 28L4 28L4 29L5 29L5 27L3 27L3 26L5 26L5 25L7 25L7 26L6 26L6 27L7 27L7 26L8 26L8 25L9 25L9 28L11 28L11 29L13 29L13 30L11 30L11 31L10 31L10 30L9 30L9 29L7 29L7 28L6 28L6 29L7 29L7 30L4 30L4 32L3 32L3 31L2 31L2 33L4 33L4 32L5 32L5 31L7 31L7 32L6 32L6 33L8 33L8 35L9 35L9 36L8 36L8 41L10 41L10 40L9 40L9 36L10 36L10 35L9 35L9 34L10 34L10 33L9 33L9 31L10 31L10 32L11 32L11 34L12 34L12 35L14 35L14 34L12 34L12 33L14 33L14 32L12 32L12 31L13 31L13 30L14 30L14 31L17 31L17 30L14 30L14 28L13 28L13 27L12 27L12 28L11 28L11 26L12 26L12 25L11 25L11 24L10 24L10 23L11 23L11 20L13 20L13 21L12 21L12 22L15 22L15 23L14 23L14 24L13 24L13 23L12 23L12 24L13 24L13 25L16 25L16 26L15 26L15 27L16 27L16 28L15 28L15 29L19 29L19 30L18 30L18 32L19 32L19 33L18 33L18 34L17 34L17 32L15 32L15 33L16 33L16 34L15 34L15 36L12 36L12 38L13 38L13 37L14 37L14 38L15 38L15 39L16 39L16 38L15 38L15 37L19 37L19 38L20 38L20 37L19 37L19 36L17 36L17 35L19 35L19 34L20 34L20 36L23 36L23 37L21 37L21 38L22 38L22 39L21 39L21 40L22 40L22 41L23 41L23 40L22 40L22 39L23 39L23 38L24 38L24 40L25 40L25 41L26 41L26 40L25 40L25 39L26 39L26 38L27 38L27 40L29 40L29 41L30 41L30 40L29 40L29 39L28 39L28 38L27 38L27 37L28 37L28 36L27 36L27 35L30 35L30 36L29 36L29 38L30 38L30 39L31 39L31 40L33 40L33 41L36 41L36 39L37 39L37 38L36 38L36 37L37 37L37 36L38 36L38 37L39 37L39 38L38 38L38 39L39 39L39 40L38 40L38 41L39 41L39 40L40 40L40 39L41 39L41 38L40 38L40 37L39 37L39 36L38 36L38 35L39 35L39 34L41 34L41 33L40 33L40 32L41 32L41 31L40 31L40 32L38 32L38 33L39 33L39 34L38 34L38 35L37 35L37 32L36 32L36 31L38 31L38 30L37 30L37 29L40 29L40 30L41 30L41 27L40 27L40 28L38 28L38 27L35 27L35 28L37 28L37 29L36 29L36 31L35 31L35 32L34 32L34 31L33 31L33 32L32 32L32 31L30 31L30 32L29 32L29 33L28 33L28 32L27 32L27 33L28 33L28 34L26 34L26 32L25 32L25 29L28 29L28 30L26 30L26 31L28 31L28 30L32 30L32 27L31 27L31 26L32 26L32 25L33 25L33 26L37 26L37 25L40 25L40 26L41 26L41 23L40 23L40 22L41 22L41 21L39 21L39 20L40 20L40 19L39 19L39 20L38 20L38 19L37 19L37 17L33 17L33 18L32 18L32 17L31 17L31 18L29 18L29 17L30 17L30 16L33 16L33 14L34 14L34 16L35 16L35 14L37 14L37 13L39 13L39 14L38 14L38 15L39 15L39 16L38 16L38 17L40 17L40 18L41 18L41 17L40 17L40 16L41 16L41 15L39 15L39 14L41 14L41 13L39 13L39 12L38 12L38 10L37 10L37 9L38 9L38 8L37 8L37 9L36 9L36 8L35 8L35 10L34 10L34 12L36 12L36 11L37 11L37 13L32 13L32 12L33 12L33 11L32 11L32 12L31 12L31 14L30 14L30 16L29 16L29 17L28 17L28 18L26 18L26 19L27 19L27 20L23 20L23 18L24 18L24 19L25 19L25 17L27 17L27 16L28 16L28 15L29 15L29 13L30 13L30 12L29 12L29 13L28 13L28 14L27 14L27 12L28 12L28 11L29 11L29 10L30 10L30 11L31 11L31 10L32 10L32 9L31 9L31 10L30 10L30 8L29 8L29 4L30 4L30 7L31 7L31 5L32 5L32 7L33 7L33 4L30 4L30 3L32 3L32 2L30 2L30 3L29 3L29 0L28 0L28 1L26 1L26 3L25 3L25 2L24 2L24 3L25 3L25 4L21 4L21 3L22 3L22 1L24 1L24 0L20 0L20 1L21 1L21 3L20 3L20 2L19 2L19 0L18 0L18 1L17 1L17 0L16 0L16 1L12 1L12 0ZM30 0L30 1L33 1L33 0ZM10 2L10 3L12 3L12 5L11 5L11 9L10 9L10 8L9 8L9 9L8 9L8 11L9 11L9 12L10 12L10 16L9 16L9 15L8 15L8 14L9 14L9 13L8 13L8 14L7 14L7 13L6 13L6 14L7 14L7 15L6 15L6 16L8 16L8 17L9 17L9 18L10 18L10 20L11 20L11 19L12 19L12 18L13 18L13 20L14 20L14 21L15 21L15 22L17 22L17 20L18 20L18 19L16 19L16 20L15 20L15 18L17 18L17 16L18 16L18 15L15 15L15 14L19 14L19 17L20 17L20 18L19 18L19 19L20 19L20 20L19 20L19 21L18 21L18 23L15 23L15 24L16 24L16 25L17 25L17 28L19 28L19 29L20 29L20 30L19 30L19 32L20 32L20 30L21 30L21 31L22 31L22 29L25 29L25 28L26 28L26 27L27 27L27 26L28 26L28 25L25 25L25 26L23 26L23 25L22 25L22 24L23 24L23 23L24 23L24 22L23 22L23 20L21 20L21 17L22 17L22 16L23 16L23 17L24 17L24 16L23 16L23 15L24 15L24 14L22 14L22 16L21 16L21 17L20 17L20 15L21 15L21 14L20 14L20 13L15 13L15 9L14 9L14 11L13 11L13 12L14 12L14 13L15 13L15 14L14 14L14 15L12 15L12 16L14 16L14 15L15 15L15 17L12 17L12 18L11 18L11 14L13 14L13 13L11 13L11 12L10 12L10 11L9 11L9 10L11 10L11 9L12 9L12 5L13 5L13 8L14 8L14 6L15 6L15 7L16 7L16 8L18 8L18 9L17 9L17 10L16 10L16 12L18 12L18 10L19 10L19 11L20 11L20 12L21 12L21 13L25 13L25 12L26 12L26 11L27 11L27 10L28 10L28 9L29 9L29 8L27 8L27 7L28 7L28 6L27 6L27 7L26 7L26 6L25 6L25 9L24 9L24 8L23 8L23 7L24 7L24 5L22 5L22 6L21 6L21 4L20 4L20 3L19 3L19 4L15 4L15 3L16 3L16 2L15 2L15 3L14 3L14 2ZM17 2L17 3L18 3L18 2ZM27 2L27 5L28 5L28 4L29 4L29 3L28 3L28 2ZM13 3L13 4L14 4L14 5L15 5L15 6L16 6L16 7L17 7L17 6L16 6L16 5L15 5L15 4L14 4L14 3ZM19 4L19 5L20 5L20 4ZM9 6L9 7L10 7L10 6ZM18 6L18 8L19 8L19 6ZM20 6L20 8L22 8L22 9L21 9L21 10L24 10L24 11L23 11L23 12L25 12L25 11L26 11L26 10L27 10L27 8L26 8L26 10L24 10L24 9L23 9L23 8L22 8L22 7L23 7L23 6L22 6L22 7L21 7L21 6ZM33 8L33 9L34 9L34 8ZM39 8L39 9L40 9L40 10L41 10L41 9L40 9L40 8ZM19 9L19 10L20 10L20 9ZM35 10L35 11L36 11L36 10ZM21 11L21 12L22 12L22 11ZM31 14L31 15L32 15L32 14ZM25 15L25 16L26 16L26 15ZM36 15L36 16L37 16L37 15ZM3 17L3 20L5 20L5 21L7 21L7 20L6 20L6 19L7 19L7 18L6 18L6 19L5 19L5 18L4 18L4 17ZM28 18L28 19L29 19L29 20L28 20L28 21L26 21L26 22L25 22L25 24L26 24L26 23L27 23L27 22L28 22L28 23L29 23L29 24L30 24L30 25L29 25L29 27L28 27L28 28L31 28L31 27L30 27L30 25L32 25L32 24L33 24L33 25L37 25L37 24L40 24L40 23L39 23L39 21L37 21L37 20L36 20L36 19L34 19L34 18L33 18L33 19L34 19L34 20L33 20L33 21L35 21L35 20L36 20L36 21L37 21L37 22L35 22L35 23L33 23L33 22L31 22L31 21L32 21L32 18L31 18L31 21L29 21L29 20L30 20L30 19L29 19L29 18ZM20 20L20 21L19 21L19 22L20 22L20 23L21 23L21 24L22 24L22 23L21 23L21 22L22 22L22 21L21 21L21 20ZM20 21L20 22L21 22L21 21ZM28 21L28 22L29 22L29 21ZM2 22L2 24L1 24L1 27L2 27L2 28L3 28L3 27L2 27L2 24L3 24L3 25L5 25L5 24L4 24L4 23L3 23L3 22ZM9 22L9 23L10 23L10 22ZM30 22L30 24L32 24L32 23L31 23L31 22ZM18 23L18 24L17 24L17 25L18 25L18 27L19 27L19 28L20 28L20 29L21 29L21 28L23 28L23 26L21 26L21 28L20 28L20 27L19 27L19 26L20 26L20 25L19 25L19 23ZM36 23L36 24L37 24L37 23ZM9 24L9 25L10 25L10 24ZM24 27L24 28L25 28L25 27ZM33 28L33 30L35 30L35 29L34 29L34 28ZM7 30L7 31L8 31L8 30ZM23 30L23 31L24 31L24 30ZM21 32L21 33L22 33L22 32ZM23 32L23 33L25 33L25 32ZM30 32L30 33L29 33L29 34L30 34L30 33L31 33L31 32ZM33 33L33 36L36 36L36 33ZM22 34L22 35L24 35L24 34ZM25 34L25 36L26 36L26 34ZM34 34L34 35L35 35L35 34ZM31 35L31 39L33 39L33 38L32 38L32 35ZM10 37L10 38L11 38L11 37ZM25 37L25 38L26 38L26 37ZM34 37L34 38L35 38L35 37ZM18 39L18 40L17 40L17 41L18 41L18 40L20 40L20 39ZM34 39L34 40L35 40L35 39ZM11 40L11 41L13 41L13 40ZM14 40L14 41L15 41L15 40ZM0 0L0 7L7 7L7 0ZM1 1L1 6L6 6L6 1ZM2 2L2 5L5 5L5 2ZM34 0L34 7L41 7L41 0ZM35 1L35 6L40 6L40 1ZM36 2L36 5L39 5L39 2ZM0 34L0 41L7 41L7 34ZM1 35L1 40L6 40L6 35ZM2 36L2 39L5 39L5 36Z" fill="#000000"/></g></g></svg>
