<?xml version="1.0" encoding="UTF-8"?>
<svg xmlns="http://www.w3.org/2000/svg" version="1.1" width="200" height="200" viewBox="0 0 200 200"><rect x="0" y="0" width="200" height="200" fill="#ffffff"/><g transform="scale(4.878)"><g transform="translate(0,0)"><path fill-rule="evenodd" d="M8 0L8 1L9 1L9 2L8 2L8 5L9 5L9 6L8 6L8 7L9 7L9 6L10 6L10 7L11 7L11 8L8 8L8 10L5 10L5 9L4 9L4 8L0 8L0 9L4 9L4 10L1 10L1 11L0 11L0 13L1 13L1 15L3 15L3 16L4 16L4 15L3 15L3 14L2 14L2 11L8 11L8 12L6 12L6 13L5 13L5 12L3 12L3 13L4 13L4 14L6 14L6 15L8 15L8 14L9 14L9 16L6 16L6 17L5 17L5 18L4 18L4 20L3 20L3 18L2 18L2 17L1 17L1 16L0 16L0 18L2 18L2 19L1 19L1 22L0 22L0 26L2 26L2 27L1 27L1 28L0 28L0 29L1 29L1 28L2 28L2 29L3 29L3 30L2 30L2 32L1 32L1 33L7 33L7 32L3 32L3 31L5 31L5 29L4 29L4 27L7 27L7 28L6 28L6 29L7 29L7 30L6 30L6 31L9 31L9 32L8 32L8 34L9 34L9 33L10 33L10 35L9 35L9 37L8 37L8 41L12 41L12 40L13 40L13 41L14 41L14 40L16 40L16 39L15 39L15 38L16 38L16 36L17 36L17 37L18 37L18 38L17 38L17 39L18 39L18 40L19 40L19 39L21 39L21 40L20 40L20 41L23 41L23 40L24 40L24 41L27 41L27 40L29 40L29 37L30 37L30 38L31 38L31 39L32 39L32 41L33 41L33 40L34 40L34 41L35 41L35 40L36 40L36 41L37 41L37 40L36 40L36 38L37 38L37 39L38 39L38 37L39 37L39 36L41 36L41 35L40 35L40 34L41 34L41 32L40 32L40 31L39 31L39 30L40 30L40 29L39 29L39 30L38 30L38 26L39 26L39 28L41 28L41 24L40 24L40 23L39 23L39 24L38 24L38 23L37 23L37 22L41 22L41 20L40 20L40 19L37 19L37 18L38 18L38 17L37 17L37 16L38 16L38 15L37 15L37 14L35 14L35 13L34 13L34 14L32 14L32 12L33 12L33 11L34 11L34 12L37 12L37 13L38 13L38 14L39 14L39 16L41 16L41 13L40 13L40 10L41 10L41 8L40 8L40 9L39 9L39 8L36 8L36 9L35 9L35 10L32 10L32 9L31 9L31 8L33 8L33 9L34 9L34 8L33 8L33 6L32 6L32 4L33 4L33 3L32 3L32 4L30 4L30 3L31 3L31 1L32 1L32 2L33 2L33 0L30 0L30 1L29 1L29 0L28 0L28 2L27 2L27 3L26 3L26 2L25 2L25 1L24 1L24 0L20 0L20 2L21 2L21 1L22 1L22 2L25 2L25 5L26 5L26 8L25 8L25 9L26 9L26 11L25 11L25 14L26 14L26 16L25 16L25 15L24 15L24 16L22 16L22 15L23 15L23 13L22 13L22 15L21 15L21 12L15 12L15 13L14 13L14 11L15 11L15 10L14 10L14 11L11 11L11 10L10 10L10 9L11 9L11 8L12 8L12 7L13 7L13 6L14 6L14 8L13 8L13 9L16 9L16 10L17 10L17 11L18 11L18 10L17 10L17 9L19 9L19 10L20 10L20 11L21 11L21 10L20 10L20 7L21 7L21 6L20 6L20 5L21 5L21 3L20 3L20 4L19 4L19 3L17 3L17 1L18 1L18 0L17 0L17 1L16 1L16 4L15 4L15 5L16 5L16 7L15 7L15 6L14 6L14 5L13 5L13 4L14 4L14 2L15 2L15 1L14 1L14 2L13 2L13 1L12 1L12 0ZM11 2L11 4L10 4L10 3L9 3L9 4L10 4L10 6L11 6L11 7L12 7L12 6L11 6L11 4L13 4L13 2ZM28 2L28 3L27 3L27 4L28 4L28 3L30 3L30 2ZM16 4L16 5L17 5L17 7L16 7L16 8L17 8L17 7L18 7L18 8L19 8L19 7L20 7L20 6L19 6L19 5L17 5L17 4ZM22 5L22 7L23 7L23 5ZM27 5L27 7L28 7L28 8L27 8L27 13L28 13L28 8L29 8L29 7L30 7L30 6L31 6L31 7L32 7L32 6L31 6L31 5ZM18 6L18 7L19 7L19 6ZM24 6L24 7L25 7L25 6ZM28 6L28 7L29 7L29 6ZM6 8L6 9L7 9L7 8ZM21 8L21 9L22 9L22 11L23 11L23 12L24 12L24 9L22 9L22 8ZM29 9L29 12L31 12L31 11L32 11L32 10L31 10L31 9ZM37 9L37 10L36 10L36 11L37 11L37 12L39 12L39 11L37 11L37 10L39 10L39 9ZM8 10L8 11L10 11L10 13L11 13L11 11L10 11L10 10ZM8 12L8 13L6 13L6 14L8 14L8 13L9 13L9 12ZM16 13L16 14L12 14L12 16L11 16L11 14L10 14L10 16L9 16L9 17L8 17L8 18L9 18L9 17L10 17L10 16L11 16L11 17L12 17L12 16L14 16L14 19L12 19L12 18L10 18L10 19L11 19L11 20L9 20L9 21L10 21L10 22L12 22L12 21L11 21L11 20L13 20L13 23L8 23L8 22L7 22L7 21L8 21L8 20L7 20L7 19L6 19L6 18L7 18L7 17L6 17L6 18L5 18L5 20L4 20L4 22L3 22L3 23L1 23L1 24L3 24L3 26L4 26L4 24L5 24L5 21L6 21L6 22L7 22L7 23L6 23L6 24L7 24L7 23L8 23L8 26L7 26L7 25L5 25L5 26L7 26L7 27L8 27L8 26L9 26L9 28L7 28L7 29L8 29L8 30L10 30L10 31L11 31L11 32L10 32L10 33L11 33L11 32L12 32L12 33L14 33L14 30L15 30L15 29L16 29L16 28L17 28L17 30L18 30L18 33L17 33L17 34L14 34L14 35L11 35L11 36L10 36L10 37L12 37L12 38L11 38L11 40L12 40L12 38L14 38L14 36L16 36L16 35L17 35L17 36L19 36L19 37L20 37L20 36L19 36L19 35L21 35L21 38L22 38L22 40L23 40L23 39L25 39L25 40L27 40L27 39L28 39L28 38L27 38L27 35L28 35L28 33L27 33L27 32L29 32L29 31L30 31L30 32L31 32L31 31L33 31L33 32L35 32L35 31L36 31L36 32L38 32L38 30L37 30L37 29L36 29L36 28L33 28L33 27L34 27L34 25L35 25L35 27L36 27L36 26L38 26L38 24L37 24L37 23L35 23L35 24L33 24L33 23L34 23L34 22L30 22L30 21L34 21L34 20L35 20L35 21L36 21L36 20L37 20L37 21L38 21L38 20L37 20L37 19L36 19L36 20L35 20L35 16L34 16L34 15L35 15L35 14L34 14L34 15L31 15L31 13L30 13L30 14L27 14L27 15L29 15L29 16L26 16L26 17L25 17L25 16L24 16L24 18L23 18L23 17L21 17L21 15L19 15L19 14L18 14L18 15L17 15L17 13ZM39 13L39 14L40 14L40 13ZM14 15L14 16L15 16L15 15ZM16 15L16 16L17 16L17 15ZM18 15L18 17L19 17L19 15ZM30 15L30 18L29 18L29 19L28 19L28 17L27 17L27 18L26 18L26 19L28 19L28 23L30 23L30 22L29 22L29 21L30 21L30 19L31 19L31 15ZM36 15L36 16L37 16L37 15ZM32 16L32 17L34 17L34 16ZM15 17L15 19L14 19L14 22L15 22L15 19L16 19L16 20L17 20L17 22L18 22L18 24L17 24L17 23L16 23L16 24L15 24L15 23L13 23L13 24L12 24L12 25L11 25L11 24L9 24L9 25L11 25L11 26L10 26L10 30L11 30L11 31L12 31L12 32L13 32L13 30L14 30L14 29L15 29L15 26L16 26L16 27L18 27L18 28L20 28L20 26L21 26L21 29L18 29L18 30L22 30L22 32L20 32L20 31L19 31L19 33L18 33L18 34L17 34L17 35L19 35L19 34L21 34L21 33L22 33L22 35L23 35L23 37L22 37L22 38L23 38L23 37L26 37L26 35L27 35L27 34L25 34L25 32L24 32L24 33L22 33L22 32L23 32L23 30L24 30L24 31L25 31L25 30L26 30L26 32L27 32L27 31L29 31L29 30L30 30L30 29L29 29L29 30L28 30L28 29L27 29L27 28L28 28L28 27L27 27L27 28L25 28L25 27L26 27L26 26L29 26L29 25L30 25L30 24L28 24L28 25L27 25L27 20L26 20L26 21L25 21L25 18L24 18L24 19L22 19L22 18L21 18L21 19L19 19L19 18L16 18L16 17ZM36 17L36 18L37 18L37 17ZM39 17L39 18L40 18L40 17ZM21 19L21 20L22 20L22 19ZM32 19L32 20L34 20L34 19ZM2 20L2 21L3 21L3 20ZM6 20L6 21L7 21L7 20ZM18 20L18 22L19 22L19 23L20 23L20 22L21 22L21 21L20 21L20 22L19 22L19 20ZM22 22L22 23L21 23L21 24L18 24L18 25L17 25L17 26L18 26L18 27L19 27L19 25L21 25L21 26L23 26L23 27L22 27L22 29L23 29L23 27L25 27L25 26L26 26L26 25L24 25L24 24L25 24L25 23L26 23L26 22L24 22L24 24L23 24L23 25L22 25L22 23L23 23L23 22ZM3 23L3 24L4 24L4 23ZM31 24L31 26L30 26L30 28L31 28L31 29L32 29L32 30L34 30L34 29L33 29L33 28L32 28L32 26L33 26L33 24ZM14 25L14 26L15 26L15 25ZM11 26L11 28L12 28L12 29L11 29L11 30L12 30L12 29L14 29L14 27L13 27L13 26ZM12 27L12 28L13 28L13 27ZM24 29L24 30L25 30L25 29ZM26 29L26 30L27 30L27 29ZM35 29L35 30L36 30L36 29ZM0 30L0 31L1 31L1 30ZM16 31L16 32L17 32L17 31ZM39 32L39 33L37 33L37 37L38 37L38 36L39 36L39 34L40 34L40 32ZM29 33L29 36L28 36L28 37L29 37L29 36L30 36L30 37L31 37L31 38L32 38L32 39L35 39L35 38L36 38L36 37L32 37L32 36L31 36L31 34L30 34L30 33ZM33 33L33 36L36 36L36 33ZM24 34L24 36L25 36L25 34ZM34 34L34 35L35 35L35 34ZM9 38L9 40L10 40L10 38ZM13 39L13 40L14 40L14 39ZM39 39L39 41L40 41L40 39ZM30 40L30 41L31 41L31 40ZM0 0L0 7L7 7L7 0ZM1 1L1 6L6 6L6 1ZM2 2L2 5L5 5L5 2ZM34 0L34 7L41 7L41 0ZM35 1L35 6L40 6L40 1ZM36 2L36 5L39 5L39 2ZM0 34L0 41L7 41L7 34ZM1 35L1 40L6 40L6 35ZM2 36L2 39L5 39L5 36Z" fill="#000000"/></g></g></svg>
